<?xml version="1.0" standalone="no"?>
<!DOCTYPE svg PUBLIC "-//W3C//DTD SVG 20010904//EN"
 "http://www.w3.org/TR/2001/REC-SVG-20010904/DTD/svg10.dtd">
<svg version="1.0" xmlns="http://www.w3.org/2000/svg"
 width="1277.000000pt" height="1280.000000pt" viewBox="0 0 1277.000000 1280.000000"
 preserveAspectRatio="xMidYMid meet">
<metadata>
Created by potrace 1.15, written by Peter Selinger 2001-2017
</metadata>
<g transform="translate(0.000000,1280.000000) scale(0.100000,-0.100000)"
fill="currentColor" stroke="none">
<path d="M8111 12796 c2 -2 1051 -7 2332 -11 1666 -5 2327 -4 2327 4 0 8 -666
11 -2332 11 -1282 0 -2329 -2 -2327 -4z"/>
<path d="M6753 12580 c-45 -20 -58 -50 -23 -50 43 0 101 45 83 64 -9 9 -13 8
-60 -14z"/>
<path d="M6177 12559 c-9 -6 -15 -14 -12 -20 8 -12 66 -11 85 1 33 22 -36 40
-73 19z"/>
<path d="M6390 12413 c-336 -12 -822 -85 -1515 -229 -867 -179 -1467 -472
-1903 -929 -346 -362 -420 -637 -260 -965 54 -111 176 -237 285 -293 85 -44
204 -77 282 -77 202 -1 322 -60 384 -191 40 -86 182 -632 242 -931 38 -194 55
-329 55 -445 0 -109 18 -243 37 -272 23 -35 13 -109 -31 -225 -153 -405 -224
-1078 -137 -1305 22 -58 83 -150 174 -261 83 -100 106 -148 107 -213 0 -66
-26 -111 -119 -210 -108 -115 -126 -181 -55 -207 133 -51 284 101 284 285 0
72 12 113 36 122 21 8 124 -9 319 -53 172 -38 308 -50 645 -59 249 -6 378 -19
407 -40 25 -19 15 -25 -58 -35 -173 -25 -748 8 -929 54 -30 8 -78 24 -107 37
-43 19 -54 20 -67 10 -23 -19 -20 -81 9 -191 60 -223 121 -290 265 -290 25 0
106 10 180 22 117 19 176 22 445 23 171 1 326 5 345 9 87 21 160 84 210 182
20 38 25 63 23 111 l-1 62 31 6 c75 12 293 35 427 45 403 30 699 85 1105 205
539 160 795 281 1283 607 180 121 261 163 293 153 12 -4 31 -30 47 -63 22 -46
41 -67 112 -119 146 -109 152 -114 176 -168 17 -37 28 -91 40 -191 28 -249 67
-375 145 -458 62 -69 109 -79 323 -74 257 5 257 5 440 311 159 266 283 527
249 527 -5 0 -36 -26 -68 -57 -65 -64 -210 -278 -310 -460 l-67 -121 -79 -22
c-44 -12 -90 -20 -102 -18 -38 5 -55 56 -87 254 -39 239 -75 403 -106 476 -25
59 -32 118 -14 118 33 0 95 -176 134 -377 27 -145 48 -203 70 -203 23 0 30 57
23 189 -6 134 -24 222 -73 374 -34 107 -53 197 -41 197 11 0 62 -109 127 -270
73 -180 97 -230 110 -230 15 0 12 121 -5 235 -50 330 -204 682 -384 877 l-63
68 58 126 c76 166 102 205 164 238 34 19 198 65 514 146 255 65 492 130 527
145 102 43 95 44 157 -21 86 -89 186 -246 230 -360 10 -27 47 -94 81 -149 111
-174 106 -164 88 -182 -35 -35 -110 4 -169 88 -18 26 -15 27 -87 -24 -55 -40
-75 -31 -102 44 -27 73 -47 88 -133 99 -82 10 -104 26 -141 103 -23 48 -36 63
-54 65 -35 5 -51 -22 -51 -84 0 -42 6 -61 33 -100 17 -27 50 -59 72 -72 34
-19 49 -22 101 -17 72 6 85 -3 103 -80 19 -77 30 -85 125 -85 99 0 119 -11
152 -86 13 -30 30 -54 38 -54 8 0 37 14 64 31 43 26 53 29 72 19 37 -20 52
-75 57 -210 13 -312 -45 -652 -141 -825 -46 -83 -55 -80 -40 12 6 43 19 146
28 228 9 83 19 174 22 203 3 29 1 52 -4 52 -5 0 -26 -32 -48 -72 -21 -39 -45
-73 -51 -76 -21 -6 -15 72 12 183 28 112 29 128 15 155 -36 68 -101 -80 -164
-373 -74 -343 -112 -628 -136 -1028 -16 -268 -41 -398 -110 -562 -28 -67 -69
-138 -213 -364 -26 -41 -30 -43 -75 -43 -58 0 -592 47 -598 53 -10 9 396 631
524 804 98 132 122 193 167 433 20 111 24 123 20 65 -12 -172 -16 -403 -8
-439 23 -104 52 -23 83 229 24 186 48 318 76 410 16 52 19 56 22 30 1 -16 -9
-136 -23 -265 -35 -312 -41 -411 -26 -439 10 -17 15 -20 26 -11 25 20 44 101
75 305 54 363 162 936 200 1070 11 38 20 77 20 85 -1 21 -92 -79 -146 -159
-42 -62 -43 -66 -23 -69 19 -3 21 -8 15 -44 -9 -53 -55 -193 -71 -215 -23 -31
-27 -8 -10 61 8 37 15 79 15 93 0 24 -2 25 -36 18 l-37 -6 6 38 c3 21 9 54 12
73 6 29 -3 19 -50 -55 -31 -49 -78 -114 -103 -143 -127 -145 -174 -228 -235
-417 -79 -246 -89 -437 -22 -424 10 2 22 12 26 22 5 9 13 25 18 35 11 23 61
29 61 7 0 -46 -51 -113 -375 -490 -179 -208 -683 -806 -711 -844 -2 -2 -142
-38 -311 -81 -169 -43 -330 -86 -358 -95 -169 -57 -247 -123 -371 -311 -104
-159 -227 -280 -480 -471 -335 -254 -329 -247 -404 -398 -68 -136 -134 -316
-145 -397 -6 -40 -5 -48 8 -48 20 0 97 96 216 268 147 214 141 209 141 134 0
-61 -46 -139 -143 -247 -90 -99 -134 -165 -142 -215 -4 -26 -14 -44 -28 -52
-12 -6 -85 -13 -162 -16 -125 -4 -146 -2 -195 17 -71 27 -150 27 -226 0 -92
-33 -215 -36 -359 -9 -165 31 -233 30 -315 -4 -132 -55 -124 -56 -280 10 -53
22 -80 27 -150 27 -125 0 -200 -37 -200 -101 0 -39 23 -45 105 -27 84 19 144
15 210 -14 57 -25 66 -40 70 -123 3 -40 11 -96 20 -123 22 -74 20 -138 -6
-161 -17 -15 -35 -19 -88 -18 -66 2 -202 34 -253 60 -42 21 -51 49 -59 170 -8
134 -26 181 -100 259 -56 59 -118 95 -165 95 -16 0 -99 -16 -184 -34 -85 -19
-155 -34 -156 -33 -1 1 3 81 7 177 4 96 9 268 9 381 1 244 -6 280 -84 438 -53
106 -100 222 -110 273 -13 62 -202 270 -593 653 l-265 260 -64 260 c-92 375
-116 497 -118 600 -1 85 1 93 31 140 86 135 150 380 109 414 -34 28 -102 -46
-231 -254 l-94 -150 29 -310 c48 -507 65 -582 173 -764 99 -165 249 -345 480
-572 147 -145 207 -211 202 -220 -5 -8 -30 -43 -56 -79 -119 -164 -149 -287
-184 -770 -18 -248 -49 -518 -70 -606 -23 -101 -28 -183 -16 -282 15 -122 54
-243 92 -287 l31 -35 -28 -47 c-36 -64 -339 -364 -434 -431 -41 -29 -118 -81
-170 -115 -53 -34 -188 -135 -301 -225 -371 -294 -573 -432 -599 -406 -8 8 -6
23 6 55 60 159 66 184 61 239 -13 152 -213 503 -313 549 -56 27 -87 71 -88
127 -1 58 16 73 144 124 174 70 421 195 472 239 68 60 93 118 92 212 -2 128
-61 228 -244 409 -121 120 -162 148 -245 165 -125 27 -316 139 -352 208 -35
69 8 216 114 384 99 159 201 273 358 403 220 183 330 332 381 515 22 80 30
326 15 452 -29 241 -131 657 -220 894 -21 58 -64 157 -94 220 -54 111 -259
700 -292 839 -8 36 -20 127 -25 203 -6 81 -16 152 -26 175 l-15 37 -23 -27
c-34 -38 -50 -139 -43 -262 6 -117 30 -202 130 -468 72 -189 102 -304 92 -354
-8 -45 8 -79 59 -126 69 -62 138 -219 205 -468 91 -336 135 -780 97 -969 -52
-258 -163 -429 -501 -779 -163 -168 -199 -200 -208 -185 -3 5 8 51 24 103 16
52 36 119 45 148 20 66 44 89 103 98 179 25 323 270 360 612 29 270 -4 559
-98 868 -62 201 -82 291 -90 396 -7 93 -10 101 -57 179 -27 45 -104 154 -172
243 -201 264 -232 319 -259 471 -23 131 -11 198 71 395 39 92 46 159 21 180
-22 18 -46 -6 -93 -99 -74 -143 -104 -242 -109 -371 -10 -226 21 -304 247
-620 196 -274 296 -548 395 -1090 64 -347 65 -424 10 -615 -65 -226 -101 -286
-215 -354 -132 -79 -251 -218 -236 -276 9 -34 -21 -109 -133 -334 -55 -112
-113 -241 -128 -287 -24 -74 -25 -87 -14 -123 38 -130 309 -364 475 -412 162
-46 202 -86 194 -198 -9 -120 -75 -229 -169 -276 -26 -14 -82 -34 -124 -45
-77 -21 -172 -64 -212 -97 -35 -29 -73 -94 -73 -124 0 -72 88 -239 125 -239
22 0 35 68 29 141 -11 117 0 133 109 150 97 16 181 63 267 150 148 149 209
310 169 452 -23 84 21 66 142 -60 145 -151 181 -222 145 -290 -41 -80 -352
-236 -589 -294 -57 -14 -129 -74 -159 -132 -15 -30 -19 -53 -16 -89 7 -64 -4
-74 -89 -82 -135 -13 -208 -29 -232 -50 -58 -51 -244 -390 -278 -506 -41 -142
41 -460 168 -650 134 -200 312 -313 586 -371 126 -27 204 -22 428 26 295 64
460 127 610 233 79 56 153 121 350 305 75 70 166 152 203 183 86 70 116 117
136 208 32 141 218 479 272 492 61 15 120 -78 134 -210 12 -113 33 -189 91
-324 97 -228 251 -481 367 -603 47 -51 84 -79 137 -105 97 -48 159 -51 550
-29 202 12 374 16 499 12 199 -5 215 -8 441 -76 124 -37 274 -54 445 -49 127
4 165 9 210 26 109 43 293 197 650 547 328 321 415 386 780 585 446 243 823
478 937 583 59 55 129 107 144 107 5 0 6 -13 3 -29 -5 -21 -2 -30 12 -35 30
-11 38 10 40 106 1 68 10 126 33 213 40 153 83 410 116 695 49 425 101 759
189 1221 19 102 42 239 51 305 8 65 20 123 26 129 6 6 41 8 87 6 200 -12 232
-9 313 31 130 64 246 187 418 444 132 196 135 204 136 464 2 252 7 273 86 340
163 137 428 543 473 725 30 120 40 260 40 535 0 395 -10 441 -163 713 -152
272 -294 480 -416 607 -45 47 -88 96 -95 110 -16 29 -16 143 0 230 38 207 223
711 362 982 82 161 77 157 316 227 222 64 346 136 483 278 94 97 111 135 117
258 14 316 -140 603 -468 871 -175 143 -378 247 -760 389 -651 243 -1222 384
-2225 549 -476 78 -695 102 -1087 116 -230 8 -1351 11 -1558 3z m1110 -208
c18 -9 30 -24 30 -35 0 -28 15 -32 35 -10 30 33 83 44 215 43 171 -1 338 -39
365 -83 11 -17 35 -12 28 6 -9 25 24 44 77 44 62 0 78 -14 82 -74 5 -83 57
-91 58 -9 0 36 34 80 65 85 15 2 20 -3 20 -22 0 -24 2 -25 95 -31 107 -7 153
-22 212 -74 23 -19 43 -33 46 -30 2 2 -4 27 -14 54 -10 28 -15 54 -11 57 3 4
35 -16 69 -45 35 -28 66 -51 70 -51 4 0 5 14 2 30 -7 34 -9 34 71 15 33 -8
128 -24 210 -35 173 -24 289 -53 325 -80 35 -26 18 -36 -37 -22 -56 15 -64 10
-33 -23 36 -38 56 -40 102 -8 38 25 49 28 122 27 104 -2 182 -31 248 -92 26
-25 48 -43 48 -41 0 2 -7 26 -15 53 -8 27 -15 53 -15 58 0 20 66 -28 155 -113
52 -50 95 -90 95 -88 0 2 -7 26 -15 53 -10 33 -12 53 -5 60 6 6 70 -10 187
-48 224 -74 264 -91 332 -143 30 -24 58 -43 62 -43 4 0 2 13 -4 30 -6 16 -8
32 -5 36 4 3 55 -16 115 -44 132 -61 193 -82 258 -89 34 -3 72 -18 118 -45 40
-24 97 -48 141 -58 83 -19 102 -31 152 -89 32 -37 40 -41 83 -41 63 0 137 -38
196 -101 49 -52 55 -82 18 -87 -15 -2 -30 8 -50 32 -32 41 -43 45 -43 15 0
-13 29 -50 74 -95 72 -72 106 -93 91 -56 -4 9 -9 34 -12 55 -5 30 -2 37 11 37
46 0 173 -157 206 -254 11 -34 27 -72 35 -82 8 -10 15 -31 15 -46 0 -22 -8
-32 -37 -47 -21 -11 -65 -42 -98 -71 -93 -79 -353 -197 -416 -188 -22 3 -20 6
21 34 25 17 105 63 178 102 247 133 295 179 222 217 -36 19 -66 12 -75 -16 -8
-23 -32 -25 -57 -2 -12 11 -18 30 -18 60 0 38 -3 45 -26 53 -33 13 -94 2 -94
-16 0 -27 -277 -196 -374 -228 -26 -9 -73 -34 -104 -56 -55 -40 -113 -53 -127
-29 -12 19 29 50 147 110 64 33 152 86 195 117 62 45 87 58 126 62 l48 5 -83
92 c-95 104 -186 188 -195 180 -3 -4 31 -44 76 -90 44 -46 81 -86 81 -90 0 -4
-60 -47 -133 -96 -182 -122 -303 -181 -257 -126 6 8 63 53 126 101 63 47 121
95 129 107 23 33 2 47 -69 47 -57 0 -65 -3 -100 -35 -67 -61 -451 -245 -487
-233 -16 5 27 31 158 98 161 81 226 157 173 205 -25 22 -50 13 -50 -19 0 -21
-4 -24 -35 -23 -26 1 -45 -8 -84 -41 -86 -72 -109 -51 -62 56 17 39 31 76 31
83 0 17 -30 49 -47 49 -11 0 -10 -6 2 -31 21 -39 14 -45 -34 -31 -51 16 -64
15 -58 -2 10 -25 -29 -61 -103 -95 -39 -18 -73 -31 -75 -29 -3 2 14 26 36 53
22 26 38 53 36 59 -8 21 -56 8 -123 -33 -38 -23 -73 -40 -79 -38 -5 2 -11 38
-13 80 -2 42 -5 77 -7 77 -3 0 -71 -34 -152 -75 -173 -88 -206 -94 -266 -44
-21 17 -40 29 -43 26 -6 -6 193 -225 217 -238 18 -9 19 -7 13 30 -5 29 -2 48
9 65 16 24 175 111 185 102 2 -3 -30 -44 -73 -91 -85 -93 -85 -94 25 -70 77
17 146 19 155 5 4 -6 -2 -25 -12 -43 -18 -29 -24 -32 -72 -33 -79 -2 -84 -15
-25 -71 60 -59 154 -110 226 -123 52 -10 99 -35 102 -55 2 -17 -72 -17 -132 0
-31 9 -81 30 -111 46 -46 24 -62 28 -100 23 -40 -5 -52 -2 -86 22 -33 24 -50
29 -101 29 -47 0 -67 5 -83 19 -15 14 -33 19 -59 17 -82 -7 -110 -4 -162 18
-30 13 -81 26 -113 29 -56 5 -59 4 -49 -14 18 -33 65 -76 102 -92 19 -8 84
-18 145 -22 101 -7 117 -11 180 -44 54 -28 90 -39 155 -46 225 -28 617 -154
637 -206 11 -30 -12 -33 -72 -7 -150 64 -230 84 -570 137 -130 20 -164 31
-211 62 l-38 26 -23 -26 c-56 -65 -8 -104 152 -121 88 -10 184 -33 208 -50 29
-20 71 -31 192 -49 112 -16 230 -51 326 -96 35 -16 62 -29 59 -30 -9 0 -301
38 -375 50 -146 23 -280 67 -300 100 -12 19 -26 11 -15 -9 5 -11 10 -29 10
-40 0 -30 -29 -27 -77 8 -47 34 -63 27 -63 -26 0 -51 30 -64 168 -74 134 -9
181 -18 274 -53 38 -14 100 -31 139 -38 70 -11 99 -27 99 -53 0 -60 -184 -30
-290 46 -39 28 -68 33 -42 7 15 -15 16 -45 2 -53 -14 -8 -73 21 -101 51 -31
33 -43 30 -24 -6 14 -27 14 -31 1 -36 -9 -3 -44 1 -79 10 -35 9 -112 21 -170
26 -158 15 -193 34 -143 77 15 12 34 23 42 23 8 0 14 5 14 10 0 17 -57 11 -81
-9 -17 -13 -23 -28 -22 -54 3 -104 107 -148 394 -165 160 -10 203 -21 197 -50
-5 -27 -79 -38 -160 -24 -38 7 -109 12 -158 12 -113 0 -176 14 -234 51 -26 16
-49 29 -52 29 -2 0 2 -13 11 -30 31 -60 13 -66 -60 -16 -28 18 -73 54 -101 80
-29 25 -55 46 -58 46 -3 0 14 -25 38 -55 46 -56 68 -110 59 -145 -8 -31 28
-39 225 -49 256 -13 308 -41 118 -63 -115 -14 -349 2 -399 27 -16 8 -31 15
-32 15 -9 0 -13 -51 -8 -88 10 -77 8 -76 393 -83 184 -4 359 -11 388 -18 69
-14 106 -32 110 -52 5 -25 -37 -30 -114 -14 -204 43 -553 38 -739 -10 -56 -15
-118 -25 -141 -23 -36 3 -41 1 -33 -13 16 -30 42 -34 240 -34 206 0 229 -5
229 -46 0 -29 16 -23 46 16 14 19 32 35 40 35 7 0 25 -16 40 -35 30 -40 40
-43 49 -16 12 39 141 56 210 27 99 -42 -26 -75 -286 -76 -100 0 -145 10 -192
43 -35 24 -44 17 -22 -17 9 -14 14 -30 10 -36 -10 -16 -48 -11 -75 11 -14 11
-38 29 -54 41 l-28 21 12 -22 c24 -46 10 -52 -113 -49 -202 4 -231 -32 -120
-156 43 -48 54 -76 31 -76 -7 0 -34 7 -60 15 -43 12 -48 12 -48 -1 0 -8 23
-39 50 -68 28 -29 50 -56 50 -59 0 -4 -47 -7 -104 -7 -113 0 -136 -4 -136 -26
0 -19 -34 -18 -50 1 -7 9 -12 37 -11 62 2 55 -32 119 -83 158 -39 30 -76 33
-76 7 0 -42 -56 -58 -65 -19 -3 12 -1 44 4 69 16 71 -16 138 -34 71 -4 -16 -7
-108 -6 -205 l1 -178 -97 0 c-54 -1 -212 -5 -351 -10 -262 -9 -362 -3 -393 26
-20 18 -43 10 -64 -22 -24 -36 -49 -29 -99 29 l-46 52 3 -50 c2 -45 0 -50 -26
-63 -42 -20 -231 -31 -542 -32 -289 0 -429 -10 -464 -32 -17 -10 -26 -8 -65
20 -24 18 -46 32 -48 32 -2 0 -4 -12 -3 -27 0 -22 -6 -29 -32 -36 -20 -6 -50
-6 -75 -1 -34 7 -44 14 -46 32 -4 27 0 27 -107 -13 -80 -31 -215 -46 -215 -25
0 15 18 30 78 67 38 22 46 24 67 13 20 -11 28 -10 54 9 16 12 55 50 86 86 82
93 88 93 189 6 26 -23 51 -41 56 -41 29 0 71 137 92 300 15 107 25 118 78 80
16 -12 30 -17 30 -11 0 19 -149 168 -181 181 -27 11 -36 10 -82 -13 -31 -16
-91 -33 -149 -42 -121 -19 -131 -23 -125 -46 11 -40 -35 -36 -98 7 -44 29 -43
28 47 -78 58 -68 94 -126 85 -135 -10 -9 -158 -25 -182 -19 -53 13 -57 35 -66
326 -5 189 -12 278 -21 297 -12 25 -20 29 -83 36 -39 5 -74 12 -79 17 -11 11
75 102 133 140 56 35 66 37 51 11 -21 -40 -6 -89 88 -280 17 -35 51 -59 39
-28 -3 9 0 20 7 26 33 28 307 41 408 20 43 -9 62 -20 102 -62 39 -40 48 -45
42 -26 -16 59 -18 80 -6 94 18 21 37 19 65 -10 15 -14 25 -19 25 -11 0 23 -37
47 -80 51 -23 2 -45 6 -48 10 -3 3 4 29 15 58 12 28 23 59 26 68 16 48 -102
184 -180 207 -23 7 -102 12 -186 12 -169 0 -177 3 -177 78 0 73 -27 183 -51
208 -12 13 -31 22 -46 21 -22 -2 -27 4 -38 46 -12 46 -39 87 -58 87 -5 0 -7
-18 -3 -45 4 -27 3 -45 -2 -45 -11 0 -87 65 -169 144 l-53 50 0 -90 c0 -108
-19 -170 -79 -263 -45 -70 -50 -104 -25 -153 15 -29 15 -32 -5 -51 -15 -16
-37 -22 -86 -25 -60 -4 -70 -2 -115 26 -28 17 -50 29 -50 26 0 -3 7 -19 16
-35 20 -39 13 -45 -35 -31 -58 18 -69 16 -64 -12 3 -13 -3 -35 -12 -49 -19
-29 -80 -61 -101 -53 -24 9 -16 -9 26 -56 48 -55 98 -81 148 -76 l37 3 5 -109
c3 -71 9 -111 17 -113 19 -7 35 36 29 73 -10 49 13 57 153 52 136 -4 194 -25
199 -71 4 -31 2 -31 -33 -15 -14 6 -27 9 -30 6 -3 -3 4 -29 15 -58 26 -66 45
-235 36 -322 -10 -90 -28 -108 -106 -108 -67 0 -74 10 -40 53 29 36 25 78 -11
123 -41 52 -91 86 -136 93 -29 5 -39 11 -41 29 -7 45 -65 64 -131 41 -39 -14
-51 -35 -51 -89 0 -49 -13 -77 -48 -107 -25 -21 -25 -22 -7 -28 41 -13 50 -23
62 -71 14 -54 8 -118 -13 -135 -10 -8 -22 -8 -45 0 -36 12 -51 7 -42 -15 11
-30 55 -41 144 -36 95 5 222 -12 239 -33 6 -7 9 -19 8 -26 -2 -11 9 -13 48
-11 45 3 54 1 72 -23 27 -34 36 -78 22 -104 -15 -30 -64 -26 -129 9 -30 16
-57 28 -59 26 -2 -3 1 -14 8 -25 32 -60 -32 -41 -127 37 -108 90 -110 91 -55
19 81 -106 84 -154 8 -99 -48 34 -66 40 -66 19 0 -7 -6 -22 -14 -32 -14 -19
-14 -19 -36 0 -19 17 -21 26 -15 77 6 52 5 59 -19 83 -29 29 -52 34 -40 8 4
-10 9 -37 12 -60 3 -37 0 -47 -25 -72 -93 -93 -363 -46 -463 81 -22 27 -40 54
-40 59 0 29 84 -20 173 -100 31 -29 57 -49 57 -44 0 6 -9 18 -21 29 -28 25
-113 133 -128 163 -19 34 -2 46 44 31 28 -9 43 -9 66 0 54 23 48 86 -14 150
-49 50 -83 63 -140 56 -49 -7 -49 -7 -43 18 8 34 0 33 -93 -8 -109 -48 -190
-71 -349 -102 -75 -14 -156 -32 -179 -40 -82 -28 -247 -73 -251 -69 -7 7 141
98 198 122 63 26 82 28 111 11 18 -11 23 -10 27 1 18 50 103 84 262 102 141
17 169 25 176 54 17 67 150 53 255 -28 72 -54 76 -54 31 1 -92 110 -184 172
-255 172 -28 0 -46 -8 -74 -34 -47 -42 -76 -50 -241 -76 -133 -20 -154 -26
-203 -63 -56 -40 -257 -77 -247 -44 12 35 251 127 332 127 38 0 48 4 65 29 27
37 80 57 201 75 282 42 287 41 482 -134 l83 -75 -62 70 c-84 97 -214 220 -255
241 -73 39 -270 10 -478 -72 -70 -27 -113 -38 -164 -40 -60 -2 -70 -6 -80 -26
-14 -28 -74 -49 -112 -39 l-28 7 35 26 c84 63 359 178 428 178 13 0 48 11 76
25 67 31 107 40 286 61 136 15 147 15 178 0 35 -19 54 -54 39 -73 -7 -9 -20
-8 -56 2 -25 8 -49 12 -52 9 -9 -9 59 -64 79 -64 21 0 81 63 81 84 0 8 -16 33
-35 56 -35 42 -53 85 -41 98 4 3 21 1 38 -6 40 -15 43 -11 17 21 -24 32 -33
33 -107 8 -71 -24 -183 -36 -257 -26 -93 11 -110 70 -32 112 26 14 67 18 210
21 134 3 177 7 177 17 0 22 -77 83 -120 96 -33 10 -63 10 -148 0 -133 -17
-176 -29 -231 -69 -26 -19 -65 -35 -99 -42 -106 -20 -176 -42 -375 -117 -259
-97 -370 -112 -247 -33 71 46 214 105 311 130 88 23 126 39 175 76 35 27 82
31 90 9 8 -20 58 -19 74 1 8 8 33 27 57 41 35 20 53 24 88 20 39 -4 48 -1 74
23 16 16 55 36 88 45 146 42 188 71 148 101 -24 18 -91 12 -175 -17 -30 -10
-120 -32 -200 -49 -92 -19 -172 -43 -220 -65 -93 -43 -267 -98 -286 -91 -17 7
-18 50 -1 63 6 6 44 17 84 26 39 9 134 39 210 67 253 94 308 112 353 115 25 2
90 18 145 36 70 23 120 33 166 33 l67 1 -14 27 c-20 38 -42 43 -189 43 -127 0
-130 0 -133 22 -5 37 35 46 218 47 183 1 201 -3 284 -63 l50 -35 -19 31 c-41
70 -190 224 -246 253 -24 13 -23 17 -3 -50 4 -14 2 -20 -8 -20 -18 0 -119 70
-175 121 -24 22 -45 39 -48 39 -4 0 14 -25 39 -56 26 -31 46 -64 46 -75 0 -24
-47 -48 -170 -87 -113 -36 -165 -47 -180 -37 -19 12 15 40 93 76 55 26 85 34
129 34 52 0 55 1 46 19 -19 36 -98 106 -120 108 -41 2 -72 -2 -111 -17 -63
-25 -68 -22 -65 38 2 42 0 51 -12 49 -63 -15 -80 -14 -80 3 0 32 34 75 68 86
18 6 31 16 29 22 -7 24 -72 47 -132 47 -69 -1 -120 -17 -175 -55 -54 -37 -77
-29 -161 56 -99 100 -128 166 -98 221 11 21 11 21 -20 -1 -69 -49 -52 -91 102
-249 l111 -113 -130 -130 c-237 -240 -496 -470 -512 -454 -10 9 49 81 178 218
212 225 285 321 278 369 -2 18 -9 23 -33 23 -24 0 -33 -6 -45 -32 -8 -18 -18
-33 -22 -33 -4 0 -29 14 -55 30 -26 17 -57 30 -70 30 -33 0 -29 -28 4 -32 17
-2 33 -13 42 -29 13 -23 12 -30 -7 -70 -14 -28 -39 -57 -67 -77 -25 -18 -43
-37 -40 -42 9 -15 -20 -63 -75 -123 -61 -66 -83 -75 -117 -41 -31 31 -33 30
-23 -6 14 -48 -6 -97 -65 -157 -43 -45 -58 -54 -81 -51 -48 5 -42 34 17 94 29
29 67 82 83 116 34 69 120 148 160 148 13 0 27 7 30 16 26 68 -35 169 -187
306 l-92 83 85 -95 c145 -162 160 -188 121 -210 -67 -35 -134 4 -350 200 -79
72 -146 128 -149 126 -6 -7 125 -153 149 -167 29 -15 53 -67 38 -85 -19 -24
-46 -16 -77 24 -17 20 -33 34 -37 30 -15 -14 10 -54 81 -130 41 -43 74 -85 74
-93 0 -44 -100 18 -238 148 -120 112 -126 112 -19 -3 98 -107 177 -205 177
-221 0 -32 -65 13 -200 137 -41 38 -86 78 -100 89 l-25 20 15 -20 c8 -11 32
-40 53 -65 22 -25 46 -58 54 -73 l14 -28 -43 3 -43 3 3 -41 c3 -35 -1 -45 -24
-63 -38 -30 -93 -26 -113 10 -15 28 -14 31 43 123 17 29 26 53 21 64 -5 14
-10 12 -34 -17 -36 -44 -44 -30 -31 58 27 195 62 269 120 256 27 -6 27 -6 27
47 -1 35 5 62 17 81 42 63 92 31 408 -263 l113 -105 -158 168 c-191 203 -217
238 -217 286 0 128 272 329 469 347 68 6 100 -9 115 -53 14 -40 30 -46 34 -13
2 15 -8 42 -23 63 -44 66 -30 91 58 103 27 4 53 2 66 -6 30 -15 33 -10 19 28
-7 17 -9 34 -6 37 10 11 64 -22 139 -85 39 -33 75 -57 80 -54 13 7 11 71 -2
96 -8 16 -17 19 -42 14 -44 -8 -61 5 -53 39 13 50 122 80 189 51 14 -7 17 -4
15 15 -3 20 6 27 62 49 138 56 428 128 785 194 105 19 217 44 249 56 32 11
100 25 150 30 204 23 261 32 300 45 23 8 51 15 64 15 25 0 77 -24 105 -48 22
-19 32 -10 18 16 -38 70 16 57 121 -30 40 -34 82 -68 93 -77 10 -9 1 7 -21 34
-51 62 -76 110 -72 137 5 35 27 32 64 -9 l36 -38 15 23 c9 12 23 22 32 22 9 0
48 -25 86 -55 68 -54 95 -67 95 -42 -1 17 -29 49 -73 82 -28 21 -35 30 -25 36
20 11 608 32 740 27 123 -5 165 -18 225 -67 21 -17 39 -29 41 -26 2 2 -11 22
-28 44 -49 60 -38 71 65 71 58 0 96 -5 115 -15z m-3036 -1291 c21 -8 20 -53
-1 -84 -9 -14 -34 -45 -55 -69 -21 -24 -38 -53 -38 -65 0 -37 -139 -186 -174
-186 -34 0 -14 44 27 59 25 10 28 15 22 42 -6 27 -3 35 30 62 24 20 51 59 76
112 34 72 78 135 93 135 2 0 11 -3 20 -6z m6236 -144 c17 -11 14 -14 -25 -27
-27 -9 -30 -14 -27 -47 3 -32 0 -36 -20 -36 -13 0 -34 7 -46 16 -35 24 -25 55
28 82 48 24 67 27 90 12z m1187 -47 c11 -29 -62 -80 -232 -162 -174 -85 -273
-127 -281 -118 -14 14 128 111 179 123 45 9 103 40 164 85 125 93 157 107 170
72z m-8401 -95 c52 -48 60 -68 40 -105 -28 -55 -309 -313 -340 -313 -30 0 32
87 155 215 72 76 99 112 99 133 0 6 -16 29 -35 52 -33 39 -43 69 -29 83 10 10
62 -21 110 -65z m7612 30 c-5 -39 -148 -112 -148 -76 0 29 92 97 133 98 13 0
18 -6 15 -22z m-7880 -205 c7 -50 -133 -158 -195 -151 -42 5 -39 32 7 78 89
89 181 125 188 73z m2956 5 c16 -26 -4 -53 -40 -53 -23 0 -30 5 -32 23 -2 13
-1 30 2 38 8 20 56 14 70 -8z m5822 -29 c9 -15 -13 -35 -58 -54 -33 -13 -38
-13 -38 0 0 8 17 26 37 40 42 28 49 30 59 14z m-7176 -47 c-17 -29 -121 -78
-146 -68 -8 3 -14 20 -14 42 0 31 3 35 18 28 30 -13 58 -7 98 20 46 31 67 21
44 -22z m-205 -63 c14 -22 -30 -48 -126 -74 -56 -16 -119 -41 -145 -57 -38
-26 -51 -29 -84 -24 -31 5 -40 3 -40 -8 0 -23 -40 -46 -79 -46 -34 0 -34 0
-16 20 22 24 205 116 330 164 91 36 148 45 160 25z m6494 -80 c29 -27 28 -59
-3 -59 -26 0 -76 41 -76 64 0 30 44 27 79 -5z m-4847 -29 c-3 -40 -28 -79 -65
-100 -53 -30 -100 24 -63 72 18 24 98 69 116 65 11 -2 14 -13 12 -37z m4838
-121 c41 -25 80 -59 80 -71 0 -36 -151 35 -158 75 -5 24 34 22 78 -4z m-6973
-114 c7 -20 -22 -52 -69 -76 -68 -35 -98 -20 -60 29 41 53 116 80 129 47z
m6939 -25 c83 -33 184 -89 184 -102 0 -15 -68 -8 -162 16 -141 36 -208 75
-194 112 9 23 72 13 172 -26z m-303 -121 c65 -21 128 -62 115 -74 -11 -11
-220 26 -260 46 -37 19 -45 29 -31 42 14 14 115 6 176 -14z m-6054 -34 c58
-66 32 -96 -103 -117 -91 -14 -134 -4 -156 35 -14 26 -14 29 4 43 13 9 45 14
98 14 l78 0 0 30 c0 44 38 41 79 -5z m6339 -32 c2 -9 -11 -13 -47 -13 -48 0
-67 12 -38 24 22 9 80 1 85 -11z m-6677 -33 c21 -12 49 -60 49 -85 0 -13 -6
-15 -29 -10 -22 5 -35 0 -60 -21 -26 -21 -38 -25 -66 -20 -31 6 -36 4 -44 -17
-11 -29 -54 -40 -121 -31 -69 9 -75 -3 -75 -149 0 -84 -4 -121 -12 -124 -17
-6 -54 117 -60 199 -5 64 -4 68 23 96 40 39 150 79 297 107 15 3 30 12 32 20
3 8 7 22 10 30 5 17 28 19 56 5z m6314 -44 c72 -14 162 -29 200 -32 97 -8 130
-20 170 -61 36 -37 45 -63 22 -63 -8 0 -62 14 -122 30 -136 39 -288 64 -473
81 -123 11 -145 15 -153 32 -6 10 -8 26 -5 34 9 23 194 12 361 -21z m65 -186
c14 -26 2 -49 -27 -56 -33 -9 -58 16 -49 49 9 39 57 43 76 7z m117 -16 c24
-24 25 -27 9 -36 -38 -21 -87 9 -73 46 9 24 34 20 64 -10z m3 -164 c135 -12
154 -23 117 -66 l-24 -28 -133 18 c-166 21 -223 33 -246 51 -17 13 -17 16 -4
25 19 13 144 13 290 0z m-6824 -125 c12 -8 27 -28 34 -46 11 -26 11 -32 0 -39
-21 -13 -50 8 -66 46 -21 51 -7 67 32 39z m6257 -15 c139 -20 137 -54 -4 -70
-74 -8 -231 -20 -497 -37 -123 -8 -199 26 -172 77 21 40 50 29 80 -30 l13 -24
36 42 c20 23 40 42 44 42 5 0 15 -16 23 -35 16 -40 33 -44 59 -15 39 43 273
71 418 50z m486 -26 c27 -11 32 -17 22 -27 -18 -18 -308 -17 -340 1 -16 10
-20 17 -13 24 29 29 263 30 331 2z m-5646 -53 c30 -12 44 -46 27 -66 -10 -11
-38 -15 -117 -15 -96 0 -105 -2 -110 -20 -6 -24 -3 -24 -130 -24 -90 -1 -104
-3 -125 -23 -33 -31 -57 -38 -251 -77 -94 -19 -197 -44 -227 -55 -67 -26 -70
-26 -70 -2 0 50 148 108 485 191 404 100 465 111 518 91z m4092 -36 c29 -28
32 -71 9 -121 -24 -51 -37 -58 -74 -39 -36 18 -110 83 -110 96 0 22 104 89
138 89 7 0 24 -11 37 -25z m850 -83 c-26 -22 -245 -62 -340 -62 -67 0 -88 14
-44 28 76 25 406 53 384 34z m-5267 -124 c7 -7 12 -22 12 -33 0 -38 13 -36 50
7 l37 42 37 -24 c39 -24 96 -93 96 -117 0 -21 -33 -15 -70 12 -41 30 -53 32
-45 6 8 -26 -21 -41 -80 -41 -63 0 -95 31 -95 93 0 42 13 67 35 67 6 0 16 -5
23 -12z m-147 -24 c17 -21 2 -44 -42 -65 -81 -38 -109 -31 -95 25 11 44 109
73 137 40z m1487 -44 c29 -27 28 -38 -3 -46 -31 -8 -55 10 -55 42 0 30 28 32
58 4z m-1688 -20 c0 -13 -81 -59 -120 -66 -48 -10 -35 15 26 48 49 28 94 36
94 18z m2844 -1000 c31 -11 32 -20 9 -49 l-18 -21 -93 31 c-50 17 -90 35 -86
40 7 12 156 12 188 -1z m2343 -203 c60 -65 185 -289 170 -304 -15 -15 -207
203 -238 269 -14 31 -5 78 15 78 7 0 31 -19 53 -43z m-2433 -61 c46 -43 55
-68 25 -74 -22 -4 -67 39 -84 81 -21 51 -3 49 59 -7z m2336 -104 c64 -68 170
-302 170 -377 0 -41 -18 -21 -56 63 -19 41 -60 106 -92 144 -88 107 -102 129
-102 163 0 58 28 61 80 7z m-129 -115 c18 -12 44 -40 56 -62 25 -44 30 -95 10
-95 -35 0 -137 104 -137 140 0 16 18 40 31 40 3 0 21 -10 40 -23z m-103 -162
c55 -49 116 -137 110 -157 -9 -26 -178 154 -178 189 0 22 16 15 68 -32z m-120
-109 c15 -8 37 -25 49 -38 28 -29 56 -95 44 -102 -10 -6 -141 128 -141 144 0
14 16 12 48 -4z m327 -195 c31 -46 46 -116 24 -109 -26 8 -81 148 -58 148 5 0
20 -17 34 -39z m1735 -466 c0 -55 -9 -82 -21 -63 -10 15 -12 102 -3 111 14 14
24 -6 24 -48z m-42 -219 c-2 -16 -8 -31 -14 -33 -15 -5 -24 33 -17 70 6 28 7
29 20 11 8 -10 13 -32 11 -48z m-1189 -1402 c25 -31 27 -57 6 -74 -35 -29 -84
22 -71 73 8 35 38 35 65 1z m-123 -185 c19 -77 45 -374 45 -522 0 -109 -3
-144 -15 -162 -18 -28 -41 -24 -50 8 -4 12 -11 103 -16 202 -5 99 -16 218 -25
265 -9 47 -19 117 -22 156 -4 58 -2 73 12 88 31 30 59 17 71 -35z m153 -25
c26 -34 34 -60 27 -90 -8 -31 -39 -32 -60 -2 -21 29 -22 118 -2 118 8 0 24
-12 35 -26z m-436 -314 c4 -63 22 -223 42 -355 20 -132 40 -270 45 -307 40
-276 58 -951 32 -1158 -20 -155 -33 -182 -131 -281 -137 -138 -511 -373 -511
-321 0 5 7 26 15 46 34 82 28 629 -11 883 -22 149 -65 264 -144 389 -23 37
-30 60 -30 97 0 79 83 460 124 572 l15 40 0 -55 c1 -31 -12 -159 -29 -285 -31
-236 -37 -335 -21 -335 16 0 80 140 96 210 8 36 21 117 29 180 15 120 86 460
96 460 9 0 33 -440 34 -600 0 -158 -12 -197 -57 -192 -39 4 -42 -23 -18 -215
11 -92 32 -287 46 -433 27 -288 33 -330 45 -330 50 0 52 499 3 663 -16 56 -13
86 16 149 46 102 61 240 61 562 1 305 13 483 38 539 10 24 59 85 107 136 74
77 90 90 95 74 4 -10 10 -70 13 -133z m127 -64 c33 -190 86 -585 105 -793 8
-82 -6 -99 -23 -30 -18 72 -93 506 -108 627 -16 131 -19 370 -3 331 5 -13 18
-74 29 -135z m-530 136 c0 -40 -55 -172 -72 -172 -24 0 8 124 44 167 12 15 28
17 28 5z m-192 -79 c-4 -38 -63 -300 -120 -533 -47 -193 -78 -254 -78 -152 0
113 107 579 161 701 23 53 44 44 37 -16z m317 8 c7 -23 -15 -80 -38 -100 -15
-12 -17 -10 -17 18 0 37 25 101 39 101 5 0 12 -9 16 -19z m-508 -83 c-6 -64
-65 -402 -93 -535 -15 -71 -47 -129 -65 -118 -12 8 -12 71 1 114 5 18 28 124
50 235 45 224 85 366 102 366 7 0 9 -20 5 -62z m-222 -415 c-30 -194 -32 -282
-6 -340 20 -43 62 -73 101 -73 90 0 100 -130 17 -208 -14 -13 -33 -22 -43 -20
-17 3 -20 11 -57 138 -9 31 -31 77 -49 104 -18 27 -41 61 -50 75 -10 15 -18
45 -18 69 0 77 75 410 108 481 l16 36 4 -51 c1 -28 -9 -123 -23 -211z m-3957
52 c16 -35 15 -164 -2 -315 -24 -208 -28 -346 -17 -535 18 -282 53 -483 94
-539 14 -19 15 -19 27 4 11 20 11 96 4 385 -5 198 -9 446 -9 552 0 214 5 235
49 194 36 -34 47 -100 36 -222 -18 -209 30 -722 85 -912 28 -94 3 -117 -270
-255 -117 -59 -163 -78 -172 -70 -7 6 -18 29 -24 52 -14 51 -14 292 0 406 20
164 40 417 51 645 15 320 43 502 91 597 23 44 41 48 57 13z m3759 -233 c-9
-37 -18 -91 -22 -120 -8 -61 -36 -88 -55 -52 -16 31 28 200 68 260 l17 25 3
-23 c2 -12 -3 -53 -11 -90z m-166 -111 c-23 -128 -82 -206 -89 -117 -5 53 33
171 60 190 35 25 43 6 29 -73z m-184 -103 c-6 -78 -40 -186 -68 -222 -18 -22
-24 -25 -36 -14 -42 35 41 298 94 298 13 0 15 -10 10 -62z m-5840 -116 c7
-106 -3 -213 -22 -239 -13 -17 -15 -17 -42 10 -26 26 -28 33 -27 105 1 80 24
179 51 221 14 22 16 22 25 7 5 -9 12 -56 15 -104z m6261 37 c47 -50 71 -271
37 -343 -20 -42 -99 -93 -303 -196 -148 -74 -170 -89 -240 -159 -58 -59 -97
-87 -161 -119 -91 -46 -115 -50 -148 -27 -52 36 -70 203 -31 284 26 55 165
198 228 234 105 60 158 40 185 -68 18 -71 54 -111 85 -95 22 12 25 22 40 124
12 76 42 142 105 231 50 70 98 117 140 139 38 20 40 20 63 -5z m395 -260 c55
-36 100 -90 128 -154 15 -35 23 -83 31 -203 16 -244 -3 -876 -27 -900 -16 -16
-20 33 -18 246 2 130 -2 286 -7 345 -9 108 -36 227 -50 227 -11 0 -18 -119
-25 -390 -7 -306 -26 -472 -62 -529 -12 -19 -17 -21 -24 -10 -5 8 -8 142 -7
304 3 288 -2 335 -32 335 -31 0 -49 -148 -50 -400 0 -149 -13 -316 -25 -329
-17 -17 -25 41 -26 194 -1 178 -12 247 -41 253 -26 5 -36 -52 -44 -235 -4 -90
-10 -163 -14 -163 -4 0 -10 27 -13 59 -8 78 -34 143 -56 139 -14 -3 -17 -26
-21 -163 -3 -88 -9 -166 -13 -172 -21 -33 -39 2 -62 121 -8 43 -16 81 -18 83
-3 2 -6 -45 -9 -105 -7 -167 -15 -179 -239 -363 -57 -47 -169 -146 -249 -219
-80 -72 -206 -188 -281 -257 -340 -310 -357 -318 -669 -318 -177 1 -219 4
-305 24 -250 57 -226 55 -722 52 -503 -2 -594 4 -681 45 -61 30 -80 58 -151
226 -54 128 -105 230 -132 270 -31 43 -24 72 31 132 114 127 100 176 -51 176
-33 0 -59 4 -59 9 0 5 37 20 83 35 100 31 150 60 145 84 -3 15 -17 17 -110 17
l-107 0 -38 37 c-59 57 -155 221 -161 273 -4 43 -3 46 58 109 88 92 129 110
229 101 l79 -7 16 30 c8 16 32 37 52 47 45 21 149 31 185 17 36 -14 59 -69 68
-161 9 -88 14 -101 40 -101 34 0 53 35 59 112 l7 73 43 21 c24 11 65 44 91 72
27 29 56 52 66 52 36 0 110 -91 140 -174 54 -148 144 -171 170 -43 5 27 16 34
80 54 17 5 35 20 43 35 26 54 146 61 196 12 14 -14 34 -57 46 -97 28 -92 54
-144 93 -184 37 -39 51 -41 73 -8 14 22 15 36 3 130 -16 135 -14 139 77 143
97 4 128 -18 170 -118 32 -79 82 -140 114 -140 35 0 50 38 50 125 0 68 3 85
20 103 29 31 88 53 130 50 33 -3 37 -7 80 -95 25 -51 59 -107 75 -124 33 -35
90 -63 106 -53 17 10 37 65 58 162 42 192 79 204 209 67 61 -65 113 -98 139
-88 23 9 14 40 -27 94 -44 59 -50 85 -21 94 33 10 53 43 67 112 8 37 25 83 37
101 50 74 155 114 198 76 12 -11 32 -42 44 -71 30 -67 93 -115 145 -111 29 3
35 7 38 29 2 14 -9 53 -23 85 -33 74 -41 131 -25 180 18 55 54 90 135 129 38
19 92 52 119 74 26 23 56 41 66 41 10 0 58 -40 107 -90 68 -69 96 -90 116 -90
25 0 27 3 27 43 0 24 -11 81 -25 127 -30 102 -31 131 -4 156 18 16 20 26 15
71 -3 28 -3 59 0 67 11 28 75 20 127 -15z m-3393 -397 c20 -16 23 -31 30 -128
7 -106 28 -184 49 -184 9 0 41 -50 41 -64 0 -2 -7 -12 -16 -20 -24 -25 -70
-19 -155 19 -57 26 -102 38 -166 46 -93 10 -143 25 -143 42 0 19 -33 47 -56
47 -39 0 -74 21 -74 45 0 49 152 152 290 196 75 24 171 25 200 1z m1065 -20
c76 -41 87 -70 82 -217 -6 -195 -19 -207 -204 -203 -104 3 -126 6 -150 24 -50
37 -63 77 -63 198 0 129 10 150 63 135 48 -14 79 -3 127 46 52 53 74 56 145
17z m925 -20 c19 -9 43 -32 53 -49 25 -44 42 -160 28 -196 -10 -26 -13 -27
-71 -25 -58 3 -62 1 -86 -29 -14 -18 -31 -33 -38 -33 -42 0 -70 120 -57 244 6
54 12 73 30 87 30 24 95 25 141 1z m-364 -13 c8 -6 14 -24 14 -38 0 -40 27
-125 68 -214 31 -68 33 -80 21 -92 -21 -21 -182 -55 -263 -55 -66 0 -70 1
-106 38 -48 48 -63 100 -64 224 -1 74 3 101 14 112 9 10 57 21 125 30 117 15
168 14 191 -5z"/>
<path d="M8028 12113 c34 -62 112 -126 112 -91 0 12 -74 84 -103 100 -16 8
-17 7 -9 -9z"/>
<path d="M6516 12103 c-10 -10 -7 -101 3 -108 12 -7 51 34 51 53 0 32 -38 71
-54 55z"/>
<path d="M7980 12035 c41 -56 134 -155 146 -155 24 0 16 14 -43 71 -80 76
-122 110 -103 84z"/>
<path d="M5527 11955 c80 -93 120 -129 128 -115 8 12 -88 109 -150 153 -23 16
-18 7 22 -38z"/>
<path d="M5381 11963 c-15 -29 -14 -65 2 -87 13 -18 15 -17 35 9 27 35 27 38
-2 71 -23 28 -23 28 -35 7z"/>
<path d="M5946 11964 c-9 -23 -7 -77 4 -94 7 -12 12 -12 29 4 26 24 27 67 3
89 -23 21 -28 21 -36 1z"/>
<path d="M6281 11905 c61 -78 134 -155 145 -155 23 0 16 17 -23 56 -53 51
-141 122 -122 99z"/>
<path d="M5020 11904 c0 -19 192 -209 197 -196 3 7 -5 25 -18 39 -44 47 -179
165 -179 157z"/>
<path d="M9641 11893 c25 -34 93 -103 101 -103 22 0 2 33 -44 74 -53 47 -81
61 -57 29z"/>
<path d="M6511 11871 c-16 -28 -14 -59 6 -92 23 -38 29 -37 36 9 12 69 -18
128 -42 83z"/>
<path d="M4950 11833 c124 -135 140 -149 140 -119 0 15 -148 156 -164 156 -6
0 6 -17 24 -37z"/>
<path d="M4812 11808 c3 -51 2 -53 -22 -53 -18 0 -29 9 -40 32 -16 35 -40 44
-40 15 0 -10 7 -29 16 -42 24 -35 127 -140 138 -140 12 0 1 131 -17 189 -19
66 -38 66 -35 -1z"/>
<path d="M7190 11839 c0 -28 39 -91 54 -86 24 8 -12 107 -39 107 -9 0 -15 -9
-15 -21z"/>
<path d="M9021 11823 c8 -22 141 -163 155 -163 24 0 16 14 -38 66 -84 79 -121
110 -117 97z"/>
<path d="M6105 11771 c-37 -16 -50 -43 -46 -96 2 -15 6 -11 22 17 25 48 50 62
75 44 17 -13 18 -18 6 -61 -7 -26 -11 -49 -9 -52 8 -7 67 61 67 78 0 25 -40
67 -70 73 -14 3 -34 1 -45 -3z"/>
<path d="M6902 11708 c71 -79 93 -97 105 -84 8 8 -144 156 -161 156 -5 0 20
-32 56 -72z"/>
<path d="M5380 11745 c-19 -22 -17 -66 4 -98 28 -43 37 -32 34 40 -3 68 -15
86 -38 58z"/>
<path d="M4367 11725 c46 -64 141 -157 153 -150 14 8 -22 48 -115 128 -44 39
-54 44 -38 22z"/>
<path d="M9238 11735 c21 -40 154 -170 159 -157 6 15 -26 51 -111 125 -33 29
-54 43 -48 32z"/>
<path d="M6624 11716 c-10 -26 46 -109 62 -93 7 7 -14 76 -29 95 -13 16 -26
15 -33 -2z"/>
<path d="M9824 11709 c-6 -10 -1 -76 12 -176 4 -27 11 -43 20 -43 11 0 14 18
14 78 0 110 -22 179 -46 141z"/>
<path d="M10386 11694 c-9 -23 -7 -67 3 -83 8 -12 12 -13 26 -1 31 26 38 50
20 76 -18 27 -40 31 -49 8z"/>
<path d="M9587 11676 c-7 -18 29 -92 49 -100 20 -8 18 32 -4 74 -21 38 -37 48
-45 26z"/>
<path d="M4261 11628 c-67 -71 -12 -222 138 -381 85 -89 133 -128 112 -90 -5
10 -49 61 -97 113 -126 137 -161 200 -113 200 12 0 42 -23 73 -56 45 -49 56
-56 79 -50 35 8 70 59 61 88 -9 28 -91 116 -125 133 -29 15 -39 11 -39 -16 0
-39 -60 -24 -62 16 -1 11 2 30 6 43 9 28 -7 29 -33 0z m189 -147 c30 -21 39
-68 15 -77 -26 -10 -65 13 -79 48 -25 59 3 71 64 29z"/>
<path d="M5593 11618 c20 -55 33 -72 51 -65 20 8 12 32 -22 70 -34 36 -44 34
-29 -5z"/>
<path d="M5035 11590 c6 -42 4 -51 -10 -57 -29 -10 -54 12 -70 61 -9 30 -29 3
-21 -28 8 -32 134 -168 148 -160 13 8 2 118 -18 185 -20 65 -38 65 -29 -1z"/>
<path d="M8106 11631 c-8 -12 2 -39 26 -73 26 -38 42 -36 34 4 -11 55 -45 94
-60 69z"/>
<path d="M5734 11528 c6 -94 16 -128 37 -128 12 0 11 43 -1 76 -15 38 -1 48
49 33 23 -7 44 -9 48 -5 9 9 -110 126 -128 126 -9 0 -10 -23 -5 -102z"/>
<path d="M6293 11614 c-9 -25 4 -110 26 -159 20 -45 89 -135 103 -135 4 0 8
41 8 90 0 85 -11 115 -25 70 -9 -29 -42 -45 -62 -29 -12 10 -14 26 -8 76 4 34
4 72 0 83 -8 24 -33 27 -42 4z"/>
<path d="M8606 11535 c79 -101 144 -157 144 -125 0 11 -56 66 -125 124 l-50
41 31 -40z"/>
<path d="M6697 11485 c105 -118 211 -220 220 -212 8 9 -55 75 -192 200 l-100
92 72 -80z"/>
<path d="M7076 11525 c-9 -24 -7 -68 4 -85 7 -11 14 -12 26 -5 25 16 34 49 20
76 -14 29 -41 36 -50 14z"/>
<path d="M4587 11505 c45 -62 145 -160 150 -147 6 15 -44 71 -122 135 -44 37
-47 39 -28 12z"/>
<path d="M4711 11515 c56 -71 126 -148 141 -156 33 -18 20 18 -19 57 -53 50
-141 123 -122 99z"/>
<path d="M10878 11484 c61 -76 123 -135 133 -128 15 9 -6 37 -73 94 -100 85
-105 88 -60 34z"/>
<path d="M3894 11449 c9 -86 35 -171 55 -177 10 -3 12 0 7 14 -4 10 -10 37
-13 61 -5 37 -3 43 13 43 25 0 86 -44 123 -90 39 -49 87 -84 96 -70 7 11 -207
236 -259 273 l-29 20 7 -74z"/>
<path d="M10305 11489 c72 -82 120 -129 132 -129 26 0 11 20 -63 87 -83 75
-116 95 -69 42z"/>
<path d="M10747 11504 c-16 -16 -1 -213 17 -231 24 -25 34 74 16 168 -11 55
-21 75 -33 63z"/>
<path d="M5166 11493 c-3 -3 -6 -28 -6 -55 0 -53 14 -62 45 -28 12 13 15 27
11 44 -6 26 -38 51 -50 39z"/>
<path d="M4237 11284 c205 -214 267 -274 285 -274 14 0 -265 284 -387 393 -53
48 -19 8 102 -119z"/>
<path d="M9655 11449 c41 -52 188 -208 203 -214 29 -11 25 6 -9 41 -57 60
-215 201 -194 173z"/>
<path d="M10503 11453 c-8 -21 27 -88 47 -88 19 0 15 39 -8 78 -19 31 -30 34
-39 10z"/>
<path d="M9930 11449 c0 -22 88 -128 123 -149 88 -54 -5 88 -95 145 -22 13
-28 14 -28 4z"/>
<path d="M8342 11438 c-17 -17 -15 -69 4 -96 25 -36 34 -25 34 43 0 66 -10 81
-38 53z"/>
<path d="M9031 11424 c-13 -29 -7 -59 17 -86 26 -31 33 -20 30 44 -3 71 -25
90 -47 42z"/>
<path d="M6500 11427 c0 -28 39 -97 55 -97 26 0 16 39 -20 78 -26 28 -35 33
-35 19z"/>
<path d="M6630 11425 c41 -56 134 -155 146 -155 24 0 16 14 -43 71 -80 76
-122 110 -103 84z"/>
<path d="M7190 11433 c0 -17 146 -166 158 -162 10 3 8 11 -7 30 -26 34 -151
143 -151 132z"/>
<path d="M6161 11320 c110 -122 139 -161 139 -187 0 -10 -25 -41 -55 -69 -36
-33 -55 -59 -55 -74 0 -22 2 -23 61 -17 87 10 119 -7 221 -115 123 -129 133
-98 13 42 -32 37 -55 74 -55 87 0 13 2 23 5 23 15 0 62 -31 84 -54 29 -31 51
-34 51 -6 0 48 40 35 133 -42 62 -51 84 -62 50 -25 -11 12 -28 36 -37 54 -16
31 -15 33 6 44 38 20 156 -1 262 -46 16 -7 18 -5 12 11 -19 46 -19 54 3 54 29
0 71 -22 100 -54 33 -35 45 -33 26 4 -17 32 -20 60 -7 60 19 0 104 -70 226
-187 71 -68 131 -121 134 -118 8 7 -37 61 -148 178 l-102 107 146 0 c208 0
349 -18 438 -55 14 -5 17 -2 15 22 l-2 28 80 1 c44 0 88 1 98 2 22 2 39 45 31
79 -9 36 -57 52 -187 64 -129 11 -216 31 -263 60 -38 23 -54 18 -54 -17 0 -30
-15 -30 -54 -1 -48 36 -64 39 -77 15 -10 -19 -17 -20 -88 -15 -42 3 -112 11
-156 16 -62 8 -108 7 -202 -4 -175 -22 -280 -20 -348 6 -62 23 -72 21 -56 -9
17 -31 13 -42 -12 -42 -24 0 -55 18 -101 59 -25 22 -28 23 -21 6 17 -43 18
-65 2 -65 -21 0 -116 72 -212 160 -137 126 -142 128 -44 20z"/>
<path d="M5947 11403 c-4 -3 -7 -26 -7 -50 0 -50 23 -69 46 -38 19 26 17 59
-4 78 -20 19 -26 20 -35 10z"/>
<path d="M3441 11393 c6 -18 149 -173 160 -173 21 0 6 29 -38 70 -91 86 -126
115 -122 103z"/>
<path d="M3588 11375 c35 -49 348 -365 361 -365 7 0 11 5 9 12 -2 6 -91 95
-198 197 -107 102 -184 173 -172 156z"/>
<path d="M9588 11385 c21 -40 154 -170 159 -157 6 15 -26 51 -111 125 -33 29
-54 43 -48 32z"/>
<path d="M10170 11344 c-12 -32 -12 -36 0 -70 l11 -27 24 23 c30 29 31 49 5
78 -26 28 -28 28 -40 -4z"/>
<path d="M5018 11334 c6 -11 29 -39 51 -62 52 -53 87 -56 126 -11 14 17 24 34
21 36 -3 3 -21 0 -40 -7 -30 -10 -41 -8 -78 9 -24 11 -54 28 -67 38 -24 17
-24 17 -13 -3z"/>
<path d="M7985 11325 c7 -33 35 -77 53 -83 26 -8 10 40 -24 76 l-36 37 7 -30z"/>
<path d="M8553 11323 c7 -36 34 -83 48 -83 29 0 10 58 -32 95 l-22 20 6 -32z"/>
<path d="M3793 11323 c-8 -21 29 -87 51 -91 21 -4 20 13 -4 66 -20 44 -36 53
-47 25z"/>
<path d="M3341 11305 c-39 -33 -46 -57 -27 -94 16 -30 65 -75 74 -67 2 3 -2
28 -9 55 -7 28 -10 53 -7 57 4 3 23 1 42 -6 59 -19 65 -7 20 38 -23 23 -46 42
-52 42 -6 0 -24 -11 -41 -25z"/>
<path d="M7770 11301 c-15 -29 -12 -52 11 -90 16 -27 23 -31 30 -20 10 16 12
89 3 113 -8 22 -31 20 -44 -3z"/>
<path d="M4931 11295 c61 -78 134 -155 145 -155 23 0 16 17 -19 52 -46 46
-145 127 -126 103z"/>
<path d="M9940 11295 c40 -53 117 -138 133 -147 35 -18 31 2 -9 43 -50 52
-144 130 -124 104z"/>
<path d="M11210 11285 c44 -53 134 -145 142 -145 24 0 0 34 -59 86 -93 81
-115 96 -83 59z"/>
<path d="M11367 11255 c73 -86 109 -118 125 -112 13 5 -87 108 -147 150 -23
16 -18 7 22 -38z"/>
<path d="M5370 11283 c0 -27 37 -83 55 -83 21 0 19 22 -7 60 -27 39 -48 49
-48 23z"/>
<path d="M10940 11293 c0 -20 44 -93 56 -93 22 0 16 36 -12 69 -24 29 -44 40
-44 24z"/>
<path d="M4597 11262 c-23 -25 -21 -58 4 -94 26 -36 39 -24 39 39 0 71 -13 88
-43 55z"/>
<path d="M9460 11248 c0 -20 44 -91 55 -90 20 2 16 34 -10 67 -27 36 -45 45
-45 23z"/>
<path d="M10850 11228 c0 -27 35 -88 50 -88 15 0 12 38 -6 76 -18 39 -44 45
-44 12z"/>
<path d="M8680 11205 c0 -29 35 -90 51 -90 24 0 11 48 -21 80 -27 26 -30 27
-30 10z"/>
<path d="M3260 11131 c91 -111 130 -143 130 -109 0 12 -68 78 -135 131 l-40
32 45 -54z"/>
<path d="M3499 11165 c-34 -18 -62 -61 -54 -84 3 -9 19 -30 35 -46 35 -33 39
-22 15 45 -8 24 -13 45 -11 47 8 8 43 -16 75 -53 28 -31 32 -42 27 -70 -9 -46
11 -88 75 -158 l54 -59 5 124 c4 104 8 124 21 127 16 3 35 -12 164 -122 80
-68 60 -30 -36 70 -89 91 -162 154 -180 154 -5 0 -6 -20 -2 -45 8 -64 -13 -60
-91 20 -35 36 -65 65 -67 65 -2 -1 -16 -7 -30 -15z m199 -199 c10 -47 -60 -64
-80 -20 -11 23 -10 29 11 45 21 17 26 18 45 6 12 -8 22 -22 24 -31z"/>
<path d="M4926 11170 c6 -8 32 -41 57 -72 58 -73 65 -93 38 -122 -26 -28 -26
-35 2 -74 39 -53 175 -192 188 -192 24 0 -10 208 -38 232 -13 10 -14 5 -11
-41 2 -43 -1 -56 -15 -65 -15 -9 -22 -7 -38 13 -15 18 -19 39 -19 91 0 62 -3
73 -32 111 -30 38 -157 154 -132 119z"/>
<path d="M9940 11165 c40 -55 134 -155 146 -155 24 0 16 14 -38 66 -79 74
-124 112 -108 89z"/>
<path d="M11070 11163 c0 -20 44 -93 56 -93 22 0 16 36 -12 69 -24 29 -44 40
-44 24z"/>
<path d="M6060 11139 c0 -25 37 -89 51 -89 13 0 11 36 -5 75 -17 39 -46 47
-46 14z"/>
<path d="M10300 11138 c-21 -23 -28 -88 -10 -88 15 0 50 61 50 88 0 28 -14 28
-40 0z"/>
<path d="M4240 11113 c1 -65 48 -99 116 -85 l36 7 -60 58 c-72 68 -92 73 -92
20z"/>
<path d="M4817 11143 c-4 -3 -7 -28 -7 -55 0 -52 14 -62 43 -30 22 24 21 55
-1 75 -20 19 -26 20 -35 10z"/>
<path d="M9397 11005 c64 -78 113 -125 129 -125 25 0 2 30 -68 90 -100 85
-105 88 -61 35z"/>
<path d="M5926 10998 c14 -26 144 -168 155 -168 21 0 6 29 -38 70 -91 86 -126
115 -117 98z"/>
<path d="M8605 10968 c69 -76 130 -138 137 -138 25 0 -1 36 -71 99 -83 75
-115 94 -66 39z"/>
<path d="M5380 10904 c0 -73 11 -114 30 -114 6 0 10 23 10 51 0 58 -18 139
-31 139 -5 0 -9 -34 -9 -76z"/>
<path d="M4706 10918 c-35 -40 -55 -96 -41 -117 14 -23 55 -11 75 22 38 62 46
137 15 137 -8 0 -29 -19 -49 -42z"/>
<path d="M5841 10953 c8 -22 141 -163 155 -163 24 0 16 14 -38 66 -84 79 -121
110 -117 97z"/>
<path d="M7390 10916 c39 -54 78 -89 91 -80 19 12 -15 49 -111 118 -8 6 1 -11
20 -38z"/>
<path d="M7547 10943 c-16 -15 -5 -55 23 -85 l29 -33 1 30 c0 17 -9 45 -20 63
-21 34 -23 36 -33 25z"/>
<path d="M7660 10932 c0 -18 33 -52 71 -73 46 -27 55 -50 41 -114 -10 -48 -6
-75 15 -110 20 -31 33 -1 33 75 0 81 -31 153 -86 198 -36 30 -74 42 -74 24z"/>
<path d="M5737 10924 c-14 -14 -8 -189 7 -210 14 -18 15 -18 22 -1 4 10 4 56
2 102 -6 81 -17 122 -31 109z"/>
<path d="M9400 10871 c71 -87 106 -121 123 -121 27 0 10 24 -61 86 -104 90
-109 93 -62 35z"/>
<path d="M3090 10890 c0 -29 26 -76 46 -84 41 -16 46 28 8 73 -30 36 -54 40
-54 11z"/>
<path d="M7207 10844 c63 -80 131 -146 143 -139 13 8 -41 68 -125 138 l-50 42
32 -41z"/>
<path d="M4945 10839 c62 -70 130 -139 137 -139 25 0 -1 37 -68 97 -83 75
-116 95 -69 42z"/>
<path d="M7076 10826 c18 -52 39 -75 55 -59 12 12 -1 45 -34 81 -31 34 -37 27
-21 -22z"/>
<path d="M6223 10854 c-7 -3 -13 -10 -13 -16 0 -12 110 -128 122 -128 4 0 8
20 8 44 0 32 -6 52 -22 70 -23 26 -71 40 -95 30z"/>
<path d="M6738 10742 c142 -153 195 -198 177 -150 -6 15 -205 205 -254 243
-14 10 20 -31 77 -93z"/>
<path d="M5840 10796 c0 -8 22 -34 49 -58 60 -53 77 -83 60 -104 -18 -21 -32
-17 -69 21 -40 41 -58 33 -37 -17 16 -38 51 -68 78 -68 29 0 69 39 69 69 0 31
-44 106 -86 145 -31 28 -64 35 -64 12z"/>
<path d="M9743 10794 c-16 -42 63 -62 100 -25 19 19 20 23 7 31 -25 16 -100
12 -107 -6z"/>
<path d="M8108 10775 c21 -40 154 -170 159 -157 6 15 -26 51 -111 125 -33 29
-54 43 -48 32z"/>
<path d="M6092 10757 c-31 -33 -28 -47 12 -47 72 0 112 36 67 60 -31 16 -56
12 -79 -13z"/>
<path d="M5520 10700 c93 -112 140 -153 140 -120 0 12 -63 74 -134 133 l-51
42 45 -55z"/>
<path d="M8454 10715 c-8 -20 29 -89 49 -93 22 -4 21 13 -3 66 -20 43 -36 53
-46 27z"/>
<path d="M7426 10614 c-10 -26 -7 -79 6 -92 9 -9 16 -8 30 5 23 21 23 65 0 86
-23 21 -28 21 -36 1z"/>
<path d="M7996 10623 c-10 -10 -7 -101 4 -108 12 -8 50 30 50 51 0 34 -37 73
-54 57z"/>
<path d="M5370 10595 c0 -29 35 -90 51 -90 24 0 11 48 -21 80 -27 26 -30 27
-30 10z"/>
<path d="M5504 10564 c-4 -14 -2 -40 3 -57 8 -29 13 -32 52 -35 37 -3 45 -7
54 -33 12 -31 37 -40 37 -13 0 8 -5 25 -11 37 -13 26 -110 127 -121 127 -4 0
-11 -12 -14 -26z"/>
<path d="M5726 10451 c10 -110 18 -135 38 -139 15 -3 18 0 12 17 -3 12 -9 30
-12 41 -5 16 -2 20 18 20 25 0 57 -18 100 -58 15 -14 31 -23 34 -19 10 10 -50
79 -127 148 l-71 62 8 -72z"/>
<path d="M6517 10482 c-22 -25 -21 -71 3 -102 25 -33 33 -22 33 45 0 65 -12
84 -36 57z"/>
<path d="M6647 10482 c-22 -25 -21 -71 3 -102 25 -33 34 -21 34 45 0 64 -13
84 -37 57z"/>
<path d="M6860 10476 c-5 -15 -10 -31 -10 -36 0 -5 5 -21 10 -36 l11 -27 24
23 c14 13 25 31 25 40 0 9 -11 27 -25 40 l-24 23 -11 -27z"/>
<path d="M8170 10424 c0 -18 72 -94 89 -94 23 0 10 43 -23 76 -36 36 -66 44
-66 18z"/>
<path d="M5297 10354 c90 -100 131 -139 139 -132 11 12 -15 44 -98 119 -114
103 -126 107 -41 13z"/>
<path d="M5317 10204 c67 -77 111 -119 119 -112 11 12 -15 45 -78 99 -89 78
-101 82 -41 13z"/>
<path d="M5160 10181 c0 -58 11 -70 40 -41 25 25 26 52 2 73 -32 29 -42 21
-42 -32z"/>
<path d="M8700 10185 c33 -43 234 -254 248 -260 48 -18 8 30 -145 171 -65 60
-111 100 -103 89z"/>
<path d="M7425 10058 c69 -76 130 -138 137 -138 25 0 -2 38 -72 99 -86 76
-112 91 -65 39z"/>
<path d="M8127 10055 c46 -59 121 -135 133 -135 32 0 -21 60 -125 143 l-40 32
32 -40z"/>
<path d="M8554 10054 c14 -58 52 -92 63 -58 5 14 -38 76 -56 82 -11 4 -12 -2
-7 -24z"/>
<path d="M5323 10030 c-52 -21 -59 -95 -12 -134 17 -14 37 -26 46 -26 25 0 73
56 73 85 0 16 -12 38 -29 56 -31 31 -42 33 -78 19z m67 -45 c10 -12 10 -21 2
-40 -19 -40 -82 -29 -82 15 0 37 55 55 80 25z"/>
<path d="M7890 10004 c0 -27 34 -84 51 -84 14 0 11 36 -8 75 -20 41 -43 46
-43 9z"/>
<path d="M9151 9995 c52 -68 143 -165 155 -165 24 0 16 14 -43 71 -79 74 -131
118 -112 94z"/>
<path d="M9364 9918 c8 -42 43 -78 76 -78 32 0 76 44 85 85 6 29 6 29 -34 -15
l-41 -45 -37 43 c-45 50 -58 53 -49 10z"/>
<path d="M7210 9915 c-19 -23 -17 -66 5 -98 25 -39 37 -22 33 48 -3 61 -16 77
-38 50z"/>
<path d="M8126 9868 c-7 -73 4 -160 21 -165 19 -7 25 57 14 141 -6 43 -11 79
-11 82 0 2 -4 4 -9 4 -5 0 -12 -28 -15 -62z"/>
<path d="M8490 9821 c91 -107 130 -140 130 -113 0 17 -32 51 -107 112 l-78 65
55 -64z"/>
<path d="M7780 9833 c123 -135 140 -149 140 -119 0 14 -151 156 -166 156 -4 0
8 -17 26 -37z"/>
<path d="M9247 9765 c48 -58 277 -285 286 -285 13 0 7 9 -58 85 -36 42 -65 81
-65 85 0 5 25 0 57 -11 31 -10 58 -17 61 -14 7 7 -76 98 -109 119 -28 17 -31
17 -48 2 -26 -23 -44 -20 -93 17 -70 54 -75 54 -31 2z"/>
<path d="M5490 9749 c0 -29 38 -89 56 -89 16 0 11 36 -13 83 -16 32 -43 36
-43 6z"/>
<path d="M9599 9726 c-13 -27 -7 -61 16 -91 14 -17 17 -18 25 -5 11 17 13 80
4 104 -9 24 -33 19 -45 -8z"/>
<path d="M7634 9715 c13 -59 66 -109 66 -63 0 15 -14 38 -36 59 l-37 34 7 -30z"/>
<path d="M7777 9703 c-11 -11 -8 -91 4 -98 15 -10 49 25 49 51 0 34 -35 65
-53 47z"/>
<path d="M5405 9690 c19 -33 138 -160 151 -160 24 0 16 14 -38 66 -82 77 -122
110 -113 94z"/>
<path d="M8690 9630 c0 -18 76 -89 108 -101 18 -7 28 -6 34 3 14 22 4 60 -22
79 -32 24 -120 37 -120 19z"/>
<path d="M9029 9593 c-9 -23 -7 -34 8 -62 31 -59 44 -52 41 20 -2 51 -6 64
-20 67 -12 2 -22 -6 -29 -25z"/>
<path d="M9257 9613 c-10 -10 -8 -76 3 -93 7 -12 12 -12 29 4 23 21 28 65 9
84 -13 13 -31 16 -41 5z"/>
<path d="M6647 9575 c46 -59 121 -135 133 -135 32 0 -23 64 -125 144 l-40 31
32 -40z"/>
<path d="M7200 9596 c0 -24 26 -82 40 -91 6 -4 16 -3 22 3 12 12 -10 58 -41
86 -19 17 -21 17 -21 2z"/>
<path d="M5840 9525 c0 -14 13 -39 30 -57 l29 -33 1 28 c0 36 -26 87 -45 87
-9 0 -15 -10 -15 -25z"/>
<path d="M6410 9524 c0 -27 34 -84 51 -84 14 0 11 36 -8 75 -20 41 -43 46 -43
9z"/>
<path d="M8524 9515 c-12 -29 72 -112 92 -92 13 13 -23 71 -55 90 -29 17 -32
17 -37 2z"/>
<path d="M8685 9456 c-8 -39 9 -78 29 -70 7 3 19 16 26 29 11 20 10 28 -4 50
-23 35 -44 32 -51 -9z"/>
<path d="M5301 9444 c-28 -35 -26 -77 3 -111 32 -37 42 -24 26 32 -11 40 -11
48 2 62 21 20 56 8 64 -22 3 -13 13 -30 23 -39 23 -21 91 -48 91 -36 0 15 -61
80 -104 112 -49 35 -79 36 -105 2z"/>
<path d="M9466 9408 c13 -44 35 -78 49 -78 23 0 18 35 -11 69 -30 37 -48 40
-38 9z"/>
<path d="M7415 9368 c11 -35 39 -81 53 -86 22 -7 13 45 -14 77 -30 36 -48 40
-39 9z"/>
<path d="M7325 9330 c-10 -16 1 -53 26 -83 28 -36 39 -26 27 22 -11 45 -42 79
-53 61z"/>
<path d="M8170 9292 c0 -20 69 -92 88 -92 24 0 11 43 -22 76 -37 37 -66 44
-66 16z"/>
<path d="M8580 9303 c0 -18 162 -178 167 -165 3 7 -3 22 -13 34 -35 39 -154
140 -154 131z"/>
<path d="M9187 9255 c80 -93 120 -129 128 -115 7 12 -86 107 -150 153 -22 16
-17 6 22 -38z"/>
<path d="M8512 9228 c71 -79 93 -97 105 -84 8 8 -144 156 -161 156 -5 0 20
-32 56 -72z"/>
<path d="M8903 9265 c13 -45 47 -82 57 -64 11 17 2 39 -28 72 -34 36 -42 34
-29 -8z"/>
<path d="M8340 9236 c0 -36 5 -48 26 -65 27 -21 107 -30 118 -13 5 9 -120 122
-135 122 -5 0 -9 -20 -9 -44z"/>
<path d="M7073 9135 c12 -40 44 -78 58 -69 14 8 1 45 -29 77 -34 36 -42 34
-29 -8z"/>
<path d="M7556 9128 c-21 -29 -20 -46 4 -85 29 -48 40 -41 40 26 0 70 -19 96
-44 59z"/>
<path d="M5310 9080 c85 -102 130 -140 130 -108 0 12 -69 80 -135 132 l-40 31
45 -55z"/>
<path d="M8801 9083 c7 -22 141 -163 155 -163 24 0 16 14 -33 60 -90 85 -126
115 -122 103z"/>
<path d="M8503 9070 c-47 -19 -57 -83 -19 -127 32 -37 40 -26 25 32 -10 40 -9
49 4 62 14 15 18 15 42 -1 14 -9 31 -28 37 -42 15 -31 28 -31 28 2 0 30 -50
84 -77 83 -10 0 -28 -4 -40 -9z"/>
<path d="M7369 8980 c76 -89 107 -115 116 -99 7 11 -62 81 -139 142 -37 29
-35 24 23 -43z"/>
<path d="M7206 8998 c18 -52 11 -78 -22 -78 -24 0 -31 9 -49 65 -6 20 -7 20
-21 1 -18 -26 -10 -54 27 -88 36 -34 50 -35 85 -4 37 31 38 84 4 121 -34 36
-41 31 -24 -17z"/>
<path d="M7565 8930 c-7 -11 21 -54 55 -85 22 -20 22 -20 36 0 26 35 29 67 9
82 -22 15 -91 18 -100 3z"/>
<path d="M5295 8875 c-25 -24 -35 -75 -15 -75 5 0 26 17 45 38 34 35 37 36 48
18 32 -50 50 -66 73 -66 33 0 30 20 -8 57 -63 59 -104 68 -143 28z"/>
<path d="M4991 1664 c-42 -30 -73 -122 -55 -168 8 -21 63 -21 93 0 42 30 73
122 55 168 -8 21 -63 21 -93 0z"/>
<path d="M7619 1489 c-140 -104 -280 -257 -211 -232 64 24 322 248 322 281 0
24 -30 10 -111 -49z"/>
<path d="M6988 1459 c-22 -12 -24 -55 -4 -62 8 -3 31 -1 51 4 26 8 40 7 50 -1
23 -19 0 -47 -55 -67 -31 -11 -45 -20 -37 -25 20 -13 95 -9 132 6 31 13 35 19
35 51 0 20 -5 45 -11 57 -21 39 -119 62 -161 37z"/>
<path d="M7150 1261 c-96 -31 -170 -66 -170 -81 0 -6 17 -10 38 -11 20 0 46
-4 57 -8 18 -7 17 -9 -10 -26 -87 -53 -105 -66 -115 -85 -16 -30 7 -35 79 -16
76 19 211 71 237 91 25 19 9 30 -57 39 -27 4 -49 11 -49 16 0 10 61 69 86 83
17 10 18 27 2 26 -7 0 -51 -13 -98 -28z"/>
<path d="M7187 1030 c-143 -48 -211 -81 -215 -103 -11 -54 293 27 363 97 15
15 23 31 20 36 -11 17 -47 11 -168 -30z"/>
<path d="M7370 953 c-8 -3 -80 -30 -159 -60 -115 -45 -140 -58 -126 -66 60
-33 355 64 355 118 0 15 -38 19 -70 8z"/>
<path d="M3664 9276 c-3 -8 -4 -29 -2 -47 4 -39 30 -59 56 -43 26 17 27 53 1
80 -25 27 -47 31 -55 10z"/>
<path d="M1489 9104 c-95 -29 -316 -195 -517 -388 -101 -98 -129 -132 -118
-143 7 -7 93 49 196 127 122 93 269 186 375 237 88 42 105 47 169 48 70 0 71
1 74 27 4 35 -21 72 -63 92 -39 19 -55 19 -116 0z"/>
<path d="M1760 8986 c0 -12 39 -91 82 -169 93 -165 103 -236 73 -552 -20 -210
-41 -339 -72 -455 -75 -281 -218 -444 -536 -608 -118 -61 -154 -74 -163 -61
-18 29 98 119 155 119 99 0 304 227 428 473 146 291 178 626 81 834 -49 106
-203 216 -300 215 -204 -3 -629 -465 -707 -767 -34 -135 -99 -276 -239 -523
-38 -67 -82 -161 -97 -207 -24 -74 -27 -95 -22 -165 6 -93 22 -125 68 -134 17
-3 94 -6 170 -6 85 0 139 -4 139 -10 0 -19 -86 -73 -225 -140 -191 -93 -270
-123 -337 -128 -122 -9 -133 8 -125 201 6 158 25 234 102 397 63 136 74 170
52 170 -61 0 -234 -322 -272 -505 -55 -269 61 -456 295 -473 118 -8 219 33
470 193 164 104 334 200 593 335 225 117 340 193 443 293 194 185 254 360 254
736 0 210 -20 486 -44 601 -8 39 -27 93 -42 120 -33 60 -183 220 -207 220 -9
0 -17 -2 -17 -4z m-147 -390 c64 -26 136 -122 157 -208 14 -55 4 -112 -47
-273 -37 -115 -74 -198 -94 -211 -23 -14 -2 109 40 230 44 129 50 175 25 201
-29 28 -54 14 -95 -53 -102 -170 -130 -300 -90 -416 30 -85 28 -133 -10 -190
-104 -157 -392 -363 -700 -503 -137 -62 -244 -92 -261 -75 -29 29 49 222 202
497 62 112 123 265 146 370 9 44 24 96 32 115 26 63 98 153 208 260 236 228
377 303 487 256z"/>
<path d="M738 8463 c-50 -56 -116 -242 -148 -415 -27 -141 -84 -287 -155 -398
-67 -103 -70 -125 -19 -117 73 12 151 97 204 226 37 87 62 188 90 371 12 74
30 170 41 214 29 119 24 161 -13 119z"/>
<path d="M10533 8080 c-22 -9 -43 -61 -43 -107 0 -23 -21 -49 -55 -68 -20 -12
-22 -36 -10 -149 l8 -79 -31 -26 c-43 -37 -48 -63 -18 -98 22 -26 30 -28 96
-28 83 0 106 17 95 70 -3 17 -9 61 -12 98 -6 67 -5 69 22 92 l29 22 -12 63
c-6 35 -9 67 -6 71 3 5 22 9 43 9 58 0 67 19 32 67 -16 22 -45 47 -64 56 -39
19 -43 19 -74 7z"/>
<path d="M2464 7806 c-15 -24 -15 -31 0 -96 30 -134 90 -217 165 -227 22 -3
46 -12 52 -20 19 -23 4 -185 -30 -315 -40 -154 -30 -181 44 -116 74 64 138
232 139 363 1 69 -3 88 -28 139 -46 94 -228 268 -303 291 -17 4 -26 0 -39 -19z"/>
<path d="M9776 7813 c-16 -17 -1 -57 54 -144 120 -185 260 -492 326 -707 19
-62 34 -115 34 -118 0 -2 5 -4 10 -4 6 0 21 24 34 53 29 66 50 87 87 87 32 0
31 -1 47 83 8 40 21 69 41 93 17 19 34 46 37 60 11 43 -4 123 -35 190 -28 59
-103 154 -122 154 -5 0 -9 -20 -9 -44 0 -84 -14 -72 -108 91 -57 98 -90 135
-116 131 -18 -3 -21 -9 -20 -49 1 -25 9 -60 18 -78 30 -57 -4 -34 -100 67 -87
91 -163 150 -178 135z m494 -709 c0 -12 -3 -29 -6 -38 -11 -30 -24 -5 -24 47
1 48 2 50 15 33 8 -11 15 -30 15 -42z"/>
<path d="M2180 7564 c0 -20 17 -53 44 -83 23 -26 14 -22 -51 22 -48 33 -77 32
-81 -2 -3 -18 11 -38 58 -83 81 -79 134 -102 226 -100 80 2 111 -13 141 -71
l16 -32 14 34 c9 22 12 48 8 70 -15 85 -137 213 -234 246 -61 21 -141 20 -141
-1z"/>
<path d="M8680 6594 c-25 -8 -153 -68 -285 -134 -374 -185 -526 -245 -989
-391 -191 -60 -317 -105 -329 -117 -59 -59 23 -236 149 -323 64 -44 91 -50
254 -59 218 -12 439 -65 541 -131 69 -44 154 -70 249 -76 75 -5 93 -2 155 21
188 72 364 185 506 326 87 86 113 119 145 185 37 75 39 83 39 175 0 71 -6 114
-24 170 -47 153 -129 280 -217 338 -55 37 -117 42 -194 16z"/>
<path d="M6703 5908 c-52 -57 -64 -113 -38 -175 8 -19 15 -42 15 -50 0 -15 -2
-15 -67 3 -36 10 -29 -17 37 -141 33 -62 60 -115 60 -119 0 -4 -30 25 -68 64
-96 100 -119 92 -62 -21 36 -71 95 -139 121 -139 32 0 70 23 85 51 18 36 18
51 -3 89 -18 31 -18 31 6 51 34 28 79 24 114 -8 l29 -28 25 29 c28 33 27 72
-3 129 -50 93 -65 130 -70 174 -11 79 -18 86 -75 78 -46 -6 -51 -5 -56 14 -7
27 -24 27 -50 -1z"/>
<path d="M6395 5344 c-9 -9 -27 -37 -40 -63 -36 -70 -60 -101 -91 -122 -68
-45 -117 -9 -153 111 -42 138 -62 116 -260 -280 -148 -298 -197 -383 -257
-453 -18 -21 -44 -71 -59 -110 -62 -168 -135 -506 -135 -626 0 -109 54 -257
111 -305 35 -30 58 -28 199 16 118 37 188 72 217 107 20 25 25 26 125 26 127
0 203 -21 255 -70 45 -43 100 -61 224 -76 101 -11 226 -2 312 23 96 28 216
202 225 327 3 50 0 64 -32 121 -65 117 -95 184 -111 250 -20 79 -59 139 -158
247 -108 116 -110 122 -118 293 -5 117 -12 161 -33 227 -35 107 -120 299 -152
340 -28 37 -45 41 -69 17z m-176 -1022 c13 -25 2 -64 -17 -60 -21 4 -56 54
-48 67 11 18 54 13 65 -7z m-143 -87 c55 -55 92 -181 57 -192 -19 -7 -63 45
-94 112 -32 65 -36 91 -16 98 22 9 28 7 53 -18z m404 -45 c13 -25 4 -60 -16
-60 -16 0 -56 59 -48 72 10 16 53 8 64 -12z m-438 -243 c40 -59 90 -158 83
-165 -24 -25 -219 248 -199 279 9 15 67 -43 116 -114z m-94 -139 c7 -7 12 -25
12 -41 0 -21 -4 -28 -16 -25 -22 4 -58 53 -50 67 9 15 39 14 54 -1z"/>
<path d="M5045 5294 c-88 -13 -195 -48 -195 -64 0 -9 76 -20 131 -20 48 0 51
-15 6 -23 -52 -8 -107 -35 -107 -51 0 -24 81 -30 215 -17 135 13 239 35 273
57 29 19 22 30 -25 39 -47 9 -62 21 -56 44 3 11 -2 21 -14 26 -21 9 -185 15
-228 9z"/>
<path d="M7591 5273 c-20 -17 -21 -20 -6 -40 20 -29 102 -53 177 -53 44 0 58
3 58 15 0 19 -71 59 -139 79 -67 20 -64 20 -90 -1z"/>
<path d="M7582 5089 c7 -48 115 -95 197 -86 124 14 24 90 -137 104 -63 6 -64
5 -60 -18z"/>
<path d="M4992 5065 c-70 -30 -5 -64 123 -64 129 0 193 34 121 64 -47 20 -199
19 -244 0z"/>
<path d="M5035 4894 c-15 -15 -15 -18 1 -35 9 -10 31 -23 50 -29 67 -22 123
37 64 67 -35 18 -95 16 -115 -3z"/>
<path d="M7596 4897 c-45 -33 19 -90 74 -67 39 16 47 41 20 62 -26 21 -69 23
-94 5z"/>
<path d="M5779 3405 c-25 -13 -51 -30 -57 -38 -29 -34 113 -31 143 3 13 15 14
23 5 39 -14 27 -34 26 -91 -4z"/>
<path d="M6242 3328 c-34 -34 -1 -68 67 -68 75 0 92 22 45 59 -30 23 -93 28
-112 9z"/>
<path d="M5789 3291 c-76 -24 -96 -61 -31 -60 46 0 183 40 185 54 2 12 -118
17 -154 6z"/>
<path d="M6233 3195 c-26 -11 -33 -20 -33 -43 0 -16 9 -37 19 -46 23 -21 92
-32 116 -19 15 9 14 13 -14 32 -43 31 -39 46 16 61 37 11 43 15 27 21 -31 12
-97 9 -131 -6z"/>
</g>
</svg>
