<?xml version="1.0" standalone="no"?>
<!DOCTYPE svg PUBLIC "-//W3C//DTD SVG 20010904//EN"
 "http://www.w3.org/TR/2001/REC-SVG-20010904/DTD/svg10.dtd">
<svg version="1.0" xmlns="http://www.w3.org/2000/svg"
 width="1232.000000pt" height="1280.000000pt" viewBox="0 0 1232.000000 1280.000000"
 preserveAspectRatio="xMidYMid meet">
<metadata>
Created by potrace 1.15, written by Peter Selinger 2001-2017
</metadata>
<g transform="translate(0.000000,1280.000000) scale(0.100000,-0.100000)"
fill="#000000" stroke="none">
<path d="M5944 12790 c-33 -13 -191 -174 -300 -305 -149 -180 -271 -343 -474
-630 -252 -357 -349 -483 -461 -600 -158 -163 -293 -228 -557 -266 -75 -11
-153 -24 -172 -28 -19 -5 -71 -12 -115 -15 -244 -19 -426 -109 -495 -246 -47
-93 -93 -125 -250 -175 -262 -83 -467 -77 -668 22 -53 26 -102 63 -178 134
-153 144 -365 279 -728 463 -500 253 -1006 446 -1172 446 -29 0 -56 -4 -59
-10 -3 -5 -19 -10 -36 -10 -36 0 -38 -18 -9 -85 11 -26 20 -58 20 -71 0 -14 9
-43 21 -66 11 -22 36 -97 55 -167 50 -184 151 -475 274 -795 131 -339 208
-567 254 -752 189 -757 70 -1239 -496 -2007 -67 -92 -167 -227 -221 -300 -100
-136 -177 -271 -177 -313 0 -62 59 -107 202 -153 88 -29 170 -83 241 -160 65
-71 86 -107 116 -206 37 -117 51 -253 50 -485 0 -280 -10 -383 -47 -501 -108
-337 -207 -1042 -218 -1544 -3 -177 -15 -314 -30 -367 -5 -16 3 -18 75 -18 62
0 95 -6 143 -25 35 -13 144 -44 243 -68 276 -68 353 -105 396 -189 32 -63 23
-145 -44 -378 -107 -374 -107 -389 29 -885 24 -87 27 -120 28 -250 2 -271 -50
-441 -284 -925 -190 -395 -310 -688 -316 -772 -4 -53 -2 -59 21 -74 20 -13 39
-15 82 -11 110 11 251 68 538 214 713 365 991 492 1295 593 237 79 348 102
485 103 125 0 151 -8 250 -78 91 -64 152 -79 226 -53 76 25 163 95 451 359
305 279 463 351 833 380 131 10 170 10 310 -6 206 -23 691 -32 854 -15 122 12
235 28 386 54 50 8 137 23 195 31 58 9 158 32 223 51 194 56 256 46 357 -56
58 -57 78 -88 168 -265 113 -223 156 -285 225 -332 91 -61 178 -65 400 -18
368 78 746 -15 1707 -422 435 -184 517 -217 850 -333 227 -79 316 -105 425
-123 77 -14 80 -13 97 7 10 12 15 30 12 41 -3 11 -41 94 -84 185 -43 91 -106
226 -141 300 -66 143 -148 299 -299 570 -184 331 -304 599 -357 801 -24 90
-27 123 -27 249 0 125 3 154 23 210 36 105 98 198 190 290 103 102 196 170
435 316 352 215 418 318 403 629 -4 66 -20 228 -37 360 -54 431 -51 550 16
685 60 119 165 201 567 442 111 67 272 158 357 203 185 97 224 122 269 169 29
30 33 39 24 58 -20 44 -111 143 -214 233 -162 142 -461 419 -533 493 -132 136
-192 236 -222 371 -25 110 -14 340 31 681 43 323 50 519 22 611 -38 127 -113
198 -339 323 -168 93 -258 158 -349 253 -123 128 -214 267 -280 432 -59 149
-81 262 -77 396 7 197 32 240 712 1190 177 247 389 544 471 659 420 592 598
920 531 975 -37 31 -175 -42 -405 -214 -180 -135 -309 -214 -519 -319 -387
-193 -768 -341 -1247 -482 -410 -121 -568 -154 -740 -154 -169 0 -239 23 -600
193 -250 118 -352 147 -523 147 -138 0 -256 -25 -495 -105 -309 -104 -353
-115 -463 -122 -92 -5 -107 -4 -148 16 -25 13 -67 46 -93 75 -82 90 -138 202
-338 676 -178 424 -355 741 -469 842 -33 29 -48 32 -82 18z"/>
</g>
</svg>
