<?xml version="1.0" standalone="no"?>
<!DOCTYPE svg PUBLIC "-//W3C//DTD SVG 20010904//EN"
 "http://www.w3.org/TR/2001/REC-SVG-20010904/DTD/svg10.dtd">
<svg version="1.0" xmlns="http://www.w3.org/2000/svg"
 width="1280.000000pt" height="1058.000000pt" viewBox="0 0 1280.000000 1058.000000"
 preserveAspectRatio="xMidYMid meet">
<metadata>
Created by potrace 1.15, written by Peter Selinger 2001-2017
</metadata>
<g transform="translate(0.000000,1058.000000) scale(0.100000,-0.100000)"
fill="#000000" stroke="none">
<path d="M1044 10566 c-125 -39 -225 -162 -294 -363 l-32 -92 -127 0 c-145 1
-208 -13 -319 -67 -89 -43 -196 -141 -238 -216 -28 -51 -29 -58 -29 -178 1
-215 54 -320 196 -385 84 -38 180 -46 473 -38 325 8 346 3 444 -90 111 -107
239 -278 552 -737 230 -338 325 -471 360 -505 l30 -28 16 39 c102 250 249 428
433 522 91 47 162 71 385 131 93 26 171 51 173 58 6 18 -78 104 -187 193 -52
42 -246 191 -430 330 -466 352 -644 499 -742 613 -76 88 -89 116 -98 214 -15
157 -58 282 -138 400 -112 165 -283 244 -428 199z"/>
<path d="M11478 10520 c-93 -28 -158 -100 -178 -197 -14 -67 -14 -244 -1 -373
15 -132 13 -245 -3 -283 -37 -89 -286 -267 -801 -572 -539 -319 -625 -373
-625 -393 0 -5 64 -23 143 -41 381 -87 452 -117 573 -243 89 -93 203 -258 249
-361 18 -39 36 -67 45 -67 22 0 115 98 265 280 198 239 302 354 436 485 139
135 243 217 351 274 114 62 172 74 326 72 73 -1 152 3 175 9 147 37 259 127
325 259 34 69 37 82 37 160 0 74 -4 94 -28 143 -51 103 -142 164 -318 212
-103 28 -205 74 -233 105 -30 33 -45 92 -46 181 -1 103 -20 152 -78 198 -73
58 -249 125 -396 151 -69 13 -179 13 -218 1z"/>
<path d="M6235 8794 c-1029 -34 -1769 -96 -2440 -204 -314 -51 -508 -94 -790
-176 -370 -107 -513 -203 -676 -450 -218 -330 -438 -814 -643 -1414 -236 -688
-346 -1199 -346 -1605 0 -375 78 -596 278 -789 180 -174 367 -252 853 -355
375 -81 482 -116 541 -178 61 -64 163 -342 238 -648 23 -93 75 -336 115 -540
112 -564 143 -688 191 -771 91 -154 359 -281 815 -384 492 -111 1110 -199
2009 -285 735 -70 1065 -96 1117 -90 122 15 254 118 362 281 76 115 189 352
356 744 172 405 291 654 368 771 86 130 79 126 253 144 744 77 1448 205 1731
314 111 43 223 118 267 178 104 142 160 422 208 1038 20 255 17 1286 -5 1605
-72 1045 -208 1697 -433 2076 -126 213 -272 321 -566 418 -487 160 -1157 254
-2188 306 -206 11 -1407 21 -1615 14z m1650 -543 c1176 -65 1869 -184 2179
-371 45 -28 60 -45 94 -109 170 -322 282 -892 349 -1766 22 -294 26 -1371 5
-1640 -16 -210 -47 -471 -71 -590 -15 -81 -20 -92 -48 -111 -110 -74 -817
-207 -1483 -279 -369 -40 -377 -41 -460 -82 -95 -47 -211 -160 -299 -293 -90
-136 -248 -462 -417 -860 -156 -368 -250 -570 -309 -662 -30 -47 -41 -57 -58
-53 -12 2 -56 7 -97 10 -138 10 -742 65 -1000 91 -884 87 -1611 200 -1983 309
-103 30 -236 79 -260 98 -24 16 -41 89 -136 557 -162 801 -217 1002 -344 1258
-164 331 -322 424 -937 552 -227 47 -279 60 -386 96 -201 67 -291 140 -330
269 -15 49 -19 91 -18 230 3 611 297 1610 719 2443 46 92 116 222 156 289 l72
121 86 45 c118 62 212 98 371 141 566 152 1499 264 2535 306 149 6 302 12 340
14 154 7 1552 -3 1730 -13z"/>
<path d="M3900 7229 c-242 -26 -350 -61 -423 -135 -93 -95 -183 -375 -218
-683 -15 -137 -7 -394 16 -481 60 -225 201 -330 445 -330 218 0 626 96 990
232 261 97 318 135 373 245 85 168 99 487 31 721 -101 349 -260 429 -869 437
-143 2 -298 -1 -345 -6z"/>
<path d="M8110 7116 c-95 -27 -134 -74 -236 -284 -156 -320 -227 -598 -194
-757 25 -123 63 -170 223 -275 246 -163 640 -339 863 -385 96 -20 271 -20 341
-1 165 45 276 157 359 360 68 171 104 380 104 621 0 381 -67 480 -405 593
-135 46 -291 82 -481 113 -164 26 -505 35 -574 15z"/>
<path d="M6116 5535 c-165 -59 -455 -383 -599 -670 -78 -157 -93 -243 -60
-345 50 -154 234 -238 570 -260 317 -20 545 22 635 117 95 100 103 304 22 571
-65 215 -190 452 -276 526 -79 68 -201 94 -292 61z"/>
<path d="M4631 3619 c-61 -31 -88 -80 -152 -273 l-54 -165 -198 0 c-212 0
-248 -6 -306 -49 -37 -28 -70 -92 -71 -136 0 -44 37 -113 73 -135 44 -27 99
-35 141 -21 30 10 263 17 271 8 2 -2 -5 -44 -16 -93 -40 -195 -42 -331 -4
-389 58 -88 179 -99 253 -23 39 40 52 82 52 163 0 62 10 126 37 248 l15 68 67
-7 c180 -18 812 -103 819 -110 2 -2 -11 -54 -29 -117 -55 -195 -49 -312 23
-393 54 -62 148 -70 216 -19 44 34 52 59 63 190 8 95 45 264 63 281 7 7 237
-34 576 -103 315 -64 326 -67 322 -85 -28 -113 -62 -283 -62 -315 -1 -175 143
-295 269 -223 65 37 74 59 78 188 3 92 26 262 39 279 1 2 35 -6 76 -18 84 -25
177 -69 227 -105 40 -29 114 -34 161 -10 39 20 77 72 85 118 23 121 -105 229
-365 308 l-68 20 15 37 c30 73 66 138 94 169 78 89 56 214 -46 263 -52 25
-115 23 -163 -6 -44 -25 -107 -121 -163 -244 -29 -63 -55 -118 -59 -123 -3 -4
-121 17 -261 47 -139 30 -338 69 -441 88 -104 18 -188 37 -188 41 0 5 25 65
55 133 59 134 68 189 40 243 -47 92 -169 119 -245 54 -36 -30 -62 -79 -136
-253 -47 -110 -56 -125 -76 -123 -13 1 -133 17 -268 37 -135 19 -330 45 -435
57 -104 13 -191 23 -193 24 -3 2 72 221 92 267 21 49 20 83 -4 132 -40 83
-137 116 -219 75z"/>
<path d="M2350 3369 c-858 -841 -1054 -1024 -1132 -1059 -54 -23 -142 -43
-298 -64 -359 -51 -486 -135 -545 -361 -18 -70 -21 -294 -5 -354 30 -111 179
-153 457 -128 l92 8 11 -43 c36 -134 113 -257 197 -315 55 -38 57 -38 152 -38
92 0 99 1 165 38 92 51 156 106 220 191 87 115 145 251 146 343 2 105 74 206
325 459 110 110 331 315 490 456 337 297 422 378 430 411 15 59 -67 417 -110
483 -24 37 -171 150 -239 184 -33 17 -71 30 -85 30 -20 -1 -81 -55 -271 -241z"/>
<path d="M9290 2769 c-96 -11 -263 -47 -311 -65 -87 -35 -365 -466 -411 -638
l-13 -48 46 -42 c66 -60 225 -169 554 -381 756 -488 934 -627 949 -741 5 -32
-2 -123 -19 -259 -35 -276 -28 -393 28 -475 81 -120 251 -149 501 -86 247 63
335 143 336 306 1 80 17 138 47 172 28 32 128 74 221 93 117 23 189 50 248 90
182 125 190 365 19 544 -100 105 -220 151 -392 151 -204 0 -336 66 -591 294
-174 155 -349 354 -708 801 -84 105 -175 213 -204 240 l-51 50 -87 2 c-48 1
-121 -3 -162 -8z"/>
</g>
</svg>
