<!DOCTYPE svg PUBLIC "-//W3C//DTD SVG 1.1//EN" "http://www.w3.org/Graphics/SVG/1.1/DTD/svg11.dtd">
<!-- Uploaded to: SVG Repo, www.svgrepo.com, Transformed by: SVG Repo Mixer Tools -->
<svg fill="#ff39c0" height="800px" width="800px" version="1.1" id="Layer_1" xmlns="http://www.w3.org/2000/svg" xmlns:xlink="http://www.w3.org/1999/xlink" viewBox="0 0 512 512" xml:space="preserve" stroke="#ff39c0">
<g id="SVGRepo_bgCarrier" stroke-width="0"/>
<g id="SVGRepo_tracerCarrier" stroke-linecap="round" stroke-linejoin="round"/>
<g id="SVGRepo_iconCarrier"> <g> <g> <path d="M239.438,350.463l-54.096-42.58c-7.254-5.71-17.763-4.459-23.476,2.796c-5.71,7.255-4.458,17.765,2.797,23.476 l54.096,42.58c7.259,5.713,17.767,4.455,23.476-2.796C247.945,366.684,246.694,356.173,239.438,350.463z"/> </g> </g> <g> <g> <path d="M505.6,2.574c-1.736-2.324-4.817-3.192-7.511-2.118L400.93,39.202c-1.721,0.687-2.945,2.239-3.21,4.072 s0.468,3.669,1.924,4.815l8.345,6.568l-101.87,129.422c-7.234-1.278-14.445,0.028-20.541,3.331L22.879,329.735 c-12.222,6.62-19.249,20.333-17.484,34.121c1.764,13.788,12.017,25.288,25.511,28.619l106.022,26.17 c23.094,5.701,41.519,23.445,48.083,46.308l5.847,20.363C195.368,501.026,209.934,512,226.279,512l0.376-0.002 c16.517-0.167,31.012-11.435,35.248-27.4l69.327-261.255c1.502-5.661,1.361-11.473-0.192-16.865l103.223-131.14l3.244,2.553 c5.065,3.988,12.406,3.113,16.392-1.953l51.604-65.561C507.295,8.098,507.335,4.898,505.6,2.574z M229.587,476.022 c-0.393,1.481-1.739,2.527-3.271,2.542h-0.037c-1.516,0-2.867-1.019-3.284-2.476l-5.848-20.363 c-9.859-34.335-37.526-60.981-72.206-69.541l-106.023-26.17c-0.192-0.047-0.332-0.205-0.357-0.401 c-0.025-0.196,0.07-0.385,0.245-0.478l225.828-122.35l-46.388,58.933c-5.71,7.254-4.458,17.765,2.797,23.476 c7.253,5.708,17.763,4.46,23.476-2.796l41.374-52.564L229.587,476.022z"/> </g> </g> <g> <g> <circle cx="221.865" cy="410.394" r="16.314"/> </g> </g> </g>
</svg>